
<svg enable-background="new 0 0 126 45.88091" viewBox="0 0 126 45.88091" xmlns="http://www.w3.org/2000/svg"><path d="m3.38062 18.78594h.0115l-.00845-1.39987.00644-.58458c0-3.50203.65358-7.11506 5.75104-7.11506 1.05044 0 2.48921.10486 3.54367.21717v3.77408c-.40527-.06835-1.29636-.12249-1.58288-.12249-.58357 0-1.01964.16105-1.34337.49191-.67492.69484-.65798 2.94319-.63128 4.46213v.26051l.25676.01621h3.88229v3.55687c-.44147 0-4.13906 0-4.13906 0s0 11.83503 0 12.33976c-.45838 0-5.28321 0-5.73719 0 0-.50473 0-12.33976 0-12.33976s-2.96045 0-3.39011 0c0-.43098 0-3.11775 0-3.55687.42968-.00001 3.38064-.00001 3.38064-.00001z"/><path d="m16.55565 19.39421c2.00541-.52773 3.93439-.98174 6.76528-.98174 2.46178 0 4.09576.44116 5.13331 1.39516 1.39447 1.30513 1.40496 2.81329 1.40496 5.79774v9.0772c-.45197 0-5.00378 0-5.45912 0 0-.34507 0-1.57848 0-1.57848l-.39242.24291c-1.43777.87955-2.65903 1.54873-4.23685 1.54873-2.76624 0-4.77609-2.07919-4.77609-4.95674 0-4.79303 5.1631-5.48922 8.93105-5.99599l.20605-.02574.05515-.22192c.0318-.39443.07306-.93571-.2886-1.33558-.33322-.36741-.91915-.53587-1.83999-.53587-1.88669 0-3.44422.47833-5.17156 1.08865 0 0-.21956.07171-.43098.14612 0-.58659 0-3.30111 0-3.63738.04906-.01151.09981-.02707.09981-.02707m7.47402 7.35257-.07614.00475c-1.39007.1184-3.72229.32002-3.72229 2.39447 0 1.1245.79569 1.88025 1.9777 1.88025.8745 0 1.45807-.32137 1.97465-.65223l.12755-.0724v-3.57984z"/><path d="m89.7264 19.39421c2.00645-.52773 3.93204-.98174 6.76192-.98174 2.46078 0 4.09136.44116 5.12825 1.39516 1.39717 1.30513 1.41003 2.81329 1.41003 5.79774v9.0772c-.45838 0-5.0051 0-5.46117 0 0-.34507 0-1.57848 0-1.57848l-.39682.24291c-1.42828.87955-2.65258 1.54873-4.23141 1.54873-2.76524 0-4.77813-2.07919-4.77813-4.95674 0-4.79303 5.16415-5.48922 8.93309-5.99599l.24631-.03114.0159-.21651c.03076-.39443.07306-.9337-.29196-1.33558-.33322-.36741-.91679-.53587-1.83559-.53587-1.88773 0-3.44117.47497-5.17155 1.08456 0 0-.22091.0758-.43607.15021 0-.58659 0-3.30111 0-3.63738.05074-.01152.1072-.02708.1072-.02708m7.46657 7.35257-.0734.00475c-1.39412.1184-3.71989.32002-3.71989 2.39447 0 1.14276.7767 1.88025 1.97565 1.88025.87855 0 1.46008-.32137 1.9777-.65223l.1255-.0724v-3.57984z"/><path d="m38.55988 10.07345v9.42428s1.29467-1.12042 3.74023-1.12042c3.55989 0 5.85389 2.86265 5.85389 7.28556 0 2.47297-.70028 4.65228-1.96515 6.1489-2.37251 2.80109-5.64487 2.84578-7.48046 2.87079 0 0-5.2416 0-5.72333 0 0-.50813 0-23.22955 0-23.66392.38637-.07104 5.05285-.85388 5.57482-.94519m0 12.54747v8.58802s2.0988.136 3.17051-.86268c1.11841-.98781 1.34982-2.66239 1.34982-3.89109 0-2.74833-1.0335-4.38976-2.75779-4.38976-.87113-.00001-1.76254.55551-1.76254.55551m3.17052 7.72534-.00201.0061.0061-.0061c-.00409 0-.00409 0-.00409 0z"/><path d="m56.62972 17.91044v3.60762l.48173-.83289c.77573-1.34036 1.85693-2.10286 3.12385-2.21316.75983-.0724 1.43541.03585 1.75273.09606v5.61642c-.55822-.28212-1.62653-.64478-3.05384-.25237-1.23816.34576-2.03925 1.41747-2.30447 3.111v7.63943c-.45838 0-5.03794 0-5.49192 0 0-.50407 0-15.40541 0-15.83098.38397-.06764 4.96145-.84978 5.49192-.94113z"/><path d="m73.20023 26.72918c0-3.03385 1.24052-5.63943 3.31597-6.98515h.00305c1.32511-.86674 3.28386-1.36672 5.37421-1.36672 1.57243 0 2.34068.27603 3.51018.69484 0 0 .1208.04399.23345.08324v3.72194c-.53082-.37146-1.46652-.83629-2.87354-.83629-1.88125 0-3.78588 1.39042-3.78588 4.50751 0 2.88094 1.57242 4.60624 4.20605 4.60624 1.28826 0 1.83798-.28011 2.45336-.67794v3.81398h-.0044c-1.29671.37077-2.3194.67319-3.89418.67319-7.92189.00001-8.53827-6.30519-8.53827-8.23484"/><path d="m70.58281 17.91044v16.77213c-.45637 0-5.03185 0-5.48582 0 0-.50407 0-15.40541 0-15.83098.38296-.06766 4.96044-.8498 5.48582-.94115z"/><path d="m64.58786 12.88199c0-1.78758 1.43233-3.24226 3.19996-3.24226 1.76014 0 3.19286 1.45467 3.19286 3.24226 0 1.7862-1.43272 3.23886-3.19286 3.23886-1.76763 0-3.19996-1.45266-3.19996-3.23886z"/><path d="m83.36099 5.36703c-.8924-.93505-.85825-2.41543.07645-3.30787.93374-.8931 2.41376-.85794 3.30721.07645.89144.93304.85725 2.41546-.07645 3.30721s-2.41477.8586-3.30721-.07579z" fill="#2e1818"/><path d="m94.41388 3.42048c.79263-.75644.82139-2.0149.06395-2.80653-.75678-.79229-2.01289-.82205-2.80553-.06426-.79364.75709-.82239 2.01355-.06596 2.8065.75779.79228 2.01389.82138 2.80754.06429z" fill="#5d2613"/><path d="m101.61218 3.09096c.67049-.64143.69383-1.70434.05411-2.37621-.64073-.67049-1.70499-.69484-2.37552-.0548-.67084.64073-.69623 1.70368-.05515 2.37555.64178.67184 1.70503.69689 2.37656.05546z" fill="#6b2e16"/><path d="m107.30572 3.75809c.53487-.51017.55517-1.35726.04465-1.89109-.51014-.53452-1.35827-.55482-1.89275-.04396-.53282.51013-.55278 1.35792-.04264 1.89175.5105.53452 1.35726.55482 1.89074.0433z" fill="#742c14"/><path d="m111.93094 5.04701c.44247-.42221.45838-1.1252.0362-1.56768-.42357-.44383-1.12686-.45942-1.56937-.03721-.44352.42287-.46043 1.12586-.0362 1.56903.42253.44453 1.12585.45939 1.56937.03586z" fill="#782b14"/><path d="m116.02129 7.32647c.40121-.38296.41511-1.01559.03416-1.41546-.38193-.39987-1.01656-.41473-1.41543-.03381-.40122.38293-.41611 1.0176-.03416 1.41612.38193.40121 1.01657.41608 1.41543.03315z" fill="#8b3618"/><path d="m119.20469 10.00915c.36703-.43437.36062-1.09946-.01389-1.48918-.37551-.39041-.97935-.35522-1.34641.07576-.36842.43236-.36298 1.10015.01385 1.48852.37451.39042.97703.35522 1.34645-.0751z" fill="#933313"/><path d="m78.11198 9.31362c1.0484-1.0007 1.08661-2.66104.08591-3.70843-1.00066-1.0494-2.66204-1.08591-3.70943-.08591-1.04736 1.00066-1.0856 2.66239-.08491 3.70843 1.00069 1.0487 2.66107 1.0866 3.70843.08591z" fill="#151013"/><path d="m125.71726 25.26571c.65999-1.25912.12516-2.46822-1.19455-2.69894-1.32002-.22936-2.9256.60557-3.58427 1.86604-.66103 1.26186-.12516 2.47026 1.19455 2.69963 1.31901.23006 2.92425-.60487 3.58427-1.86673z" fill="#b7360e"/><path d="m124.38875 19.016c.52639-.89109.38972-1.92965-.3065-2.32342-.69724-.39176-1.69014.0115-2.21856.9019-.52638.89109-.39038 1.931.30751 2.32276.69622.39242 1.68947-.01085 2.21755-.90124z" fill="#9f2d0e"/><path d="m122.29435 13.74398c.26116-.79163-.03821-1.65092-.66848-1.92088-.63024-.26861-1.35287.15495-1.61504.94523-.26081.7916.03825 1.65224.66849 1.9222.63024.26792 1.35421-.15426 1.61503-.94655z" fill="#a1300f"/><path d="m122.78048 33.93898c1.71043-1.58659 2.03184-3.44252.71923-4.14481-1.31462-.70028-3.76459.01826-5.47502 1.60693-1.70943 1.58593-2.03181 3.44047-.71819 4.14076 1.31462.70298 3.76458-.0149 5.47398-1.60288z" fill="#c0350d"/><path d="m115.70937 41.84162c1.73818-2.45537.97836-4.81059-1.69453-5.25851-2.67053-.44923-6.24836 1.17796-7.9855 3.63267-1.73784 2.45672-.98039 4.81125 1.6935 5.25986 2.67188.44923 6.2487-1.17865 7.98653-3.63402z" fill="#cb3a0e"/><g fill="#231815"><path d="m4.1648 42.4614c.05075-.23276.0159-.41272-.08085-.54533-.0954-.14141-.25881-.21246-.49122-.21246-.78619 0-1.12786.81799-1.28923 1.44317-.20366.79704-.03589 1.32207.57949 1.32207.54533 0 .85319-.37347 1.01964-.78754h2.11772c-.59303 1.60419-2.03721 2.19961-3.50034 2.19961-1.70403 0-2.77033-.95874-2.31091-2.74359.46243-1.80584 2.00101-2.84509 3.74664-2.84509 1.41207 0 2.58898.60488 2.33866 2.16916z"/><path d="m11.4064 40.29224c1.86639 0 2.73448 1.09946 2.31192 2.74428-.49863 1.9364-2.04365 2.84439-3.73683 2.84439-1.69554 0-2.76929-.92829-2.30482-2.73413.47127-1.83694 1.94385-2.85454 3.72973-2.85454zm-1.60318 2.74428c-.25676.99931.00506 1.43233.54093 1.43233.56462 0 1.01861-.43302 1.27537-1.43233.19961-.77674.00644-1.36267-.54633-1.33291-.71619 0-1.11741.73749-1.26997 1.33291z"/><path d="m15.91152 40.4431h1.92694l-.20265.78758c.36606-.40327 1.1597-.93845 1.91645-.93845.94859 0 1.36876.40458 1.47702.9682.61738-.63599 1.29636-.9682 2.07514-.9682 1.54297 0 1.80379.86739 1.43368 2.30922l-.8031 3.1279h-2.0988l.6918-2.69284c.19926-.77674.12925-1.09-.42658-1.09-.75034 0-.75339.00135-.87654.53992l-.83085 3.24291h-2.09981l.69283-2.69284c.19957-.77674.12856-1.09-.42661-1.09-.72869 0-.73714.00135-.87619.53992l-.83085 3.24291h-2.0998z"/><path d="m27.31689 40.4431h1.92694l-.20262.78758c.36602-.40327 1.15966-.93845 1.9161-.93845.94759 0 1.36876.40458 1.47598.9682.61773-.63599 1.29875-.9682 2.07549-.9682 1.54298 0 1.8048.86739 1.43472 2.30922l-.80348 3.1279h-2.0988l.69183-2.69284c.19961-.77674.12856-1.09-.42522-1.09-.75138 0-.75443.00135-.87859.53992l-.82984 3.24291h-2.0988l.69183-2.69284c.19961-.77674.12856-1.09-.42661-1.09-.729 0-.73849.00135-.87651.53992l-.83188 3.24291h-2.09846z"/><path d="m42.74159 45.72935h-1.9469l.19926-.77673c-.71078.72668-1.27741.92829-2.1455.92829-1.15021 0-1.71449-.70568-1.32612-2.21925l.82645-3.21856h2.0988l-.73409 2.85524c-.18575.72668.00606.95805.51013.95805.78959 0 .78959 0 1.04636-1.0027l.73108-2.81059h2.0988z"/><path d="m46.19322 40.4431h1.91614l-.21211.82749c.63668-.63533 1.23917-.97835 2.03724-.97835 1.39208 0 1.8376.81595 1.46413 2.26997l-.8136 3.16715h-2.09779l.71719-2.79503c.13465-.52368.11266-.98781-.48173-.98781-.78314 0-.80009.00135-.91984.53992l-.86909 3.24291h-2.0988z"/><path d="m91.30187 40.4431h1.91746l-.21243.82749c.63668-.63533 1.23952-.97835 2.0362-.97835 1.39208 0 1.83899.81595 1.46552 2.26997l-.81394 3.16715h-2.09881l.71854-2.79503c.13465-.52368.1123-.98781-.48412-.98781-.78078 0-.79769.00135-.9188.53992l-.87009 3.24291h-2.09644z"/><path d="m61.81617 42.4614c.04871-.23276.01486-.41272-.0829-.54533-.0954-.14141-.25877-.21246-.49018-.21246-.78723 0-1.1279.81799-1.28791 1.44317-.20602.79704-.0372 1.32207.57713 1.32207.54533 0 .85319-.37347 1.01965-.78754h2.1191c-.59338 1.60419-2.0386 2.19961-3.50172 2.19961-1.70403 0-2.76933-.95874-2.31091-2.74359.46378-1.80584 2.00236-2.84509 3.74764-2.84509 1.41141 0 2.58902.60488 2.33766 2.16916z"/><path d="m75.92622 45.72935c-2.79264.15156-3.07615-.03925-2.60693-1.86674l.56767-2.20771h-.74729l.31087-1.2118h.77778l.42252-1.64479h2.067l-.42152 1.64479h1.00811l-.31087 1.2118h-1.00814l-.49322 1.9161c-.12415.48377-.09776.65494.48918.65494h.33086z"/><path d="m78.77606 45.72935 1.35826-5.28625c.28213.39987 1.52064.40666 2.0988 0l-1.35826 5.28625z"/><path d="m53.22271 45.72935 1.35826-5.28625c.28115.39987 1.52032.40666 2.0988 0l-1.35826 5.28625z"/><path d="m86.96761 40.29224c1.86639 0 2.7341 1.09946 2.31192 2.74428-.49763 1.9364-2.04265 2.84439-3.73683 2.84439-1.69453 0-2.76864-.92829-2.30482-2.73413.47226-1.83694 1.94485-2.85454 3.72973-2.85454zm-1.60218 2.74428c-.25677.99931.00506 1.43233.53889 1.43233.56462 0 1.02065-.43302 1.27641-1.43233.19961-.77674.00745-1.36267-.54633-1.33291-.71519 0-1.11641.73749-1.26897 1.33291z"/><path d="m99.20586 44.08592c-.05415.21107-.0149.37212.09741.48374.10524.10084.27166.16035.47331.16035.32272 0 .69179-.09876.78719-.47362.21856-.84775-3.19351-.17047-2.66848-2.21922.34707-1.35186 1.85049-1.74494 2.95095-1.74494.93373 0 1.9574.17321 2.18035.99055l-1.89175.67319c.02332-.17051-.01489-.29161-.10285-.38297-.0883-.09132-.22836-.13126-.39072-.13126-.3637 0-.62382.11234-.69048.37416-.18911.73548 3.27641.24086 2.76929 2.21991-.28247 1.09811-1.38262 1.84509-3.32006 1.84509-.98376 0-1.9831-.24627-2.18811-1.10216z"/><path d="m57.10605 39.02158c-.13025.61233-.73409 1.11096-1.34642 1.11096-.61333 0-1.00475-.49863-.87519-1.11096.13025-.61434.73413-1.11096 1.34746-1.11096.61229 0 1.00474.49662.87415 1.11096z"/><path d="m82.65971 39.02158c-.13161.61233-.73444 1.11096-1.34777 1.11096-.61298 0-1.00375-.49863-.87415-1.11096.13157-.61434.73409-1.11096 1.34742-1.11096.61233 0 1.00375.49662.8745 1.11096z"/><path d="m68.5368 45.72935.0406-.56158c-.73447.55278-1.3796.71244-2.1668.71244-.99834 0-1.76254-.49254-1.48547-1.58659.60249-2.38907 4.09239-1.30381 4.34071-2.28826.09676-.38363-.35522-.43302-.57716-.43302-.29193 0-.70129.05955-.8657.51218h-2.01726c.28011-1.11501 1.24358-1.76794 3.33188-1.76794 2.50172 0 2.41917.92424 2.10289 2.17865l-.62182 2.46143c-.07645.30041-.10386.45131.11266.67188l.11975.10081zm.37687-2.32885c-.76929.33086-1.63737.17051-1.80923.85319-.06561.26051.14005.44251.55378.44251.73649 0 1.12281-.57242 1.25545-1.2957z"/></g></svg>