<svg width="380" height="380" viewBox="0 0 380 380" fill="none" xmlns="http://www.w3.org/2000/svg">
<circle cx="190" cy="190" r="190" fill="white"/>
<path d="M229.201 232.655L229.463 233.544C232.606 233.157 234.137 231.811 235.182 228.783L234.437 228.35C233.449 231.367 231.853 232.454 229.193 232.644L229.201 232.655ZM231.64 228.893C230.976 228.494 230.26 228.19 229.512 227.989L229.125 228.688C229.858 228.908 230.664 229.269 231.196 229.664L231.629 228.901L231.64 228.893ZM239.871 228.863H244.526C244.325 230.117 243.819 232.374 240.384 232.894L240.707 233.651C244.576 232.932 245.309 230.177 245.495 228.106H239.871V228.863ZM220.803 229.201L221.171 228.464C220.271 227.962 219.564 227.818 219.325 227.757L218.956 228.456C219.176 228.524 219.944 228.707 220.803 229.189V229.201ZM218.8 232.625L219.005 233.476C222.323 233.214 223.531 231.538 224.401 229.113L223.668 228.657C222.767 231.416 221.479 232.488 218.804 232.613L218.8 232.625ZM220.639 230.06C220.062 229.733 219.44 229.492 218.793 229.345L218.424 230.06C219.458 230.402 219.344 230.352 220.271 230.804L220.639 230.06ZM254.258 228.821H253.574V229.771H250.952V230.417H253.437C252.993 231.017 251.91 232.188 250.652 232.674L251.096 233.195C251.484 233.005 252.529 232.488 253.566 231.181V232.925C253.566 233.02 253.555 233.107 253.293 233.107C253.031 233.107 252.829 233.05 252.575 233.02L252.692 233.689C253.05 233.719 253.186 233.746 253.262 233.746C253.969 233.746 254.25 233.601 254.25 232.925V230.417H255.634V229.771H254.25V228.821H254.258ZM261.379 228.475V229.235H266.205V228.475H261.379ZM271.609 231.021H277.704V230.158H271.609V231.021ZM260.84 232.944H266.859V232.18H260.84V232.944ZM305.896 192.956V193.8L307.192 193.857C307.754 193.895 308.215 194.039 308.575 194.29C308.935 194.538 309.116 194.93 309.119 195.464C309.119 195.665 309.054 196.055 308.925 196.635C308.788 197.205 308.625 197.573 308.568 197.744L302.906 212.918L295.952 197.87C295.754 197.433 295.572 196.99 295.408 196.54C295.308 196.255 295.256 195.956 295.256 195.654C295.256 194.872 295.716 194.35 296.636 194.089C297.117 193.929 297.859 193.835 298.862 193.808V192.968H285.802V193.808C286.808 193.949 287.565 194.256 288.074 194.727C288.588 195.201 289.185 196.179 289.864 197.661L299.706 218.15C299.863 218.579 299.961 219.028 299.995 219.484C299.997 220.358 299.384 222.156 298.156 224.876C296.927 227.595 295.759 228.955 294.652 228.958C294.214 228.958 293.485 228.768 292.467 228.388C291.452 228.008 290.271 227.818 289.758 227.818C288.951 227.789 288.161 228.059 287.542 228.578C287.257 228.82 287.03 229.124 286.877 229.466C286.725 229.808 286.651 230.179 286.661 230.554C286.661 231.777 287.151 232.668 288.131 233.225C289.112 233.787 290.571 234.065 291.692 234.065C293.997 234.065 295.903 233.092 297.411 231.146C298.913 229.203 300.486 226.065 302.13 221.73L311.604 196.65C311.908 195.809 312.262 195.149 312.668 194.67C313.086 194.195 313.831 193.796 314.883 193.796V192.96H305.877L305.896 192.956ZM152.41 218.701C151.861 219.244 150.713 219.596 148.968 219.758V220.598H162.898V219.815C161.253 219.651 160.124 219.321 159.482 218.808C158.851 218.294 158.535 217.326 158.532 215.905V203.425C158.535 200.216 158.226 197.871 157.605 196.392C156.522 193.758 153.995 192.455 150.776 192.455C148.793 192.455 146.847 193.077 144.94 194.321C143.838 195.046 142.91 196.148 141.428 197.661C141.008 196.356 140.476 195.324 139.832 194.564C138.605 193.158 136.602 192.455 134.531 192.455C133.009 192.455 131.526 192.799 130.082 193.488C128.638 194.172 127.292 195.426 125.301 197.235V193.169C125.305 192.979 125.295 192.788 125.271 192.599C125.253 192.498 125.192 192.447 125.088 192.447C124.982 192.447 123.694 192.888 121.904 193.557L115.364 195.772V196.829C115.645 196.73 116.402 196.509 116.614 196.468C116.827 196.426 117.135 196.392 117.561 196.392C118.46 196.392 119.106 196.62 119.499 197.076C119.884 197.539 120.076 198.515 120.076 200.002V215.547C120.074 217.288 119.673 218.449 118.875 219.032C118.355 219.42 117.31 219.67 115.752 219.815V220.598H129.8V219.815C128.014 219.795 126.857 219.494 126.327 218.914C125.798 218.334 125.532 217.28 125.529 215.753V199.302C126.434 198.219 127.11 197.342 128.292 196.673C129.475 196.001 130.678 195.666 131.902 195.666C134.04 195.666 135.442 196.65 136.108 198.618C136.506 199.779 136.706 201.897 136.709 204.972V213.381C136.709 216.069 136.447 217.753 135.922 218.432C135.403 219.108 134.191 219.569 132.286 219.815V220.598H146.46V219.815C144.618 219.754 143.408 219.303 142.831 218.462C142.266 217.616 141.983 216.382 141.983 214.761V199.371C143.066 198.265 143.61 197.463 144.354 196.958C145.639 196.096 146.932 195.665 148.234 195.662C150.398 195.662 151.852 196.485 152.597 198.132C153.015 199.049 153.225 200.48 153.227 202.426V215.38C153.23 217.045 152.951 218.147 152.391 218.686L152.41 218.701ZM104.538 193.8L105.834 193.857C106.399 193.895 106.86 194.039 107.217 194.29C107.577 194.538 107.758 194.93 107.76 195.464C107.76 195.665 107.696 196.055 107.567 196.635C107.441 197.205 107.266 197.573 107.209 197.744L101.547 212.918L94.5934 197.87C94.3956 197.433 94.2143 196.99 94.05 196.54C93.9558 196.254 93.9045 195.955 93.898 195.654C93.898 194.872 94.3578 194.35 95.2774 194.089C95.7587 193.929 96.501 193.835 97.5042 193.808V192.968H84.4436V193.808C85.4417 193.949 86.1992 194.256 86.716 194.727C87.2303 195.201 87.8269 196.179 88.5058 197.661L98.3554 218.15C98.5129 218.579 98.6101 219.028 98.6442 219.484C98.6391 220.358 98.0273 222.156 96.8088 224.876C95.5776 227.595 94.4097 228.955 93.3052 228.958C92.8695 228.958 92.1411 228.768 91.1202 228.388C90.1018 228.008 88.9238 227.818 88.4108 227.818C87.6038 227.789 86.8146 228.059 86.1954 228.578C85.9103 228.82 85.6831 229.124 85.5305 229.466C85.378 229.808 85.3039 230.179 85.3138 230.554C85.3138 231.777 85.804 232.668 86.7844 233.225C87.761 233.787 89.224 234.065 90.345 234.065C92.6503 234.065 94.5529 233.092 96.0526 231.146C97.5574 229.203 99.1319 226.065 100.776 221.73L110.246 196.65C110.55 195.809 110.904 195.149 111.31 194.67C111.728 194.195 112.472 193.796 113.525 193.796V192.96H104.519V193.796L104.538 193.8ZM76.9538 204.995L72.9866 202.855C70.2202 201.411 68.837 199.766 68.837 197.919C68.8345 196.759 69.2347 195.746 70.0378 194.879C70.8383 194.018 71.9403 193.587 73.3438 193.587C75.6897 193.587 77.4833 194.589 78.7246 196.593C79.401 197.68 80.294 199.682 80.6892 201.624H81.6164L81.0654 192.744H80.351C80.2508 192.937 80.1046 193.103 79.9254 193.226C79.683 193.347 79.4128 193.401 79.1426 193.382C78.9754 193.382 78.2585 193.182 76.9918 192.782C75.8622 192.406 74.6822 192.203 73.492 192.181C71.06 192.181 68.6052 192.899 67.0092 194.347C65.4031 195.791 64.6 197.637 64.6 199.884C64.6 201.705 65.1801 203.289 66.3404 204.634C67.5032 205.979 69.7642 207.313 72.2228 208.639L75.5896 210.566C76.8512 211.308 77.7315 212.068 78.2306 212.846C78.7373 213.631 78.9893 214.445 78.9868 215.289C78.9868 216.609 78.5511 217.686 77.6796 218.519C76.8081 219.352 75.6251 219.768 74.1304 219.765C71.4324 219.765 69.3804 218.643 67.9744 216.399C67.1916 215.183 66.5722 212.906 66.1162 210.623H65.1206V220.848H65.9072C66.0035 220.618 66.1442 220.409 66.3214 220.233C66.49 220.071 66.7145 219.98 66.9484 219.978C67.2296 219.981 68.1289 220.181 69.6464 220.579C71.1689 220.979 72.5306 221.179 73.7314 221.179C76.5966 221.179 79.2794 220.427 81.0464 218.926C82.8147 217.421 83.6988 215.485 83.6988 213.119C83.6988 210.034 81.1908 207.324 76.9234 205.002L76.9538 204.995ZM213.803 218.519C213.297 219.102 212.174 219.511 210.436 219.746V220.59H223.828V219.746C222.308 219.545 221.289 219.127 220.807 218.481C220.315 217.843 220.071 216.458 220.073 214.328V202.061C220.073 199.713 219.754 197.819 219.116 196.38C217.934 193.652 215.354 192.288 212.101 192.288C210.056 192.288 208.154 192.888 206.393 194.089C205.405 194.765 204.283 195.829 203.026 197.281V178.813L202.966 178.6L199.717 179.501C199.21 179.663 198.313 179.926 197.026 180.291L193.146 181.404V182.487C193.428 182.419 194.142 182.267 194.473 182.218C194.685 182.19 194.901 182.177 195.119 182.18C196.243 182.18 196.95 182.444 197.239 182.974C197.528 183.501 197.672 184.329 197.672 185.459V214.328C197.672 216.532 197.419 217.929 196.912 218.519C196.395 219.109 195.317 219.515 193.678 219.735V220.579H207.309V219.739C205.609 219.498 204.497 219.098 203.973 218.538C203.448 217.976 203.187 216.572 203.19 214.328V199.508C203.19 199.166 203.922 198.433 205.386 197.311C206.848 196.189 208.363 195.628 209.931 195.628C211.73 195.628 212.958 196.227 213.617 197.425C214.268 198.626 214.595 200.2 214.597 202.149V214.328C214.597 216.534 214.345 217.927 213.841 218.508L213.803 218.519ZM281.527 215.635V201.586C281.527 197.677 280.446 194.962 278.285 193.439C277.164 192.656 275.557 192.269 274.197 192.269C272.512 192.269 270.889 192.763 269.329 193.751C268.29 194.389 266.849 195.572 265.004 197.3V192.88C265.008 192.737 264.991 192.594 264.955 192.455C264.925 192.356 264.841 192.308 264.704 192.31L261.512 193.238L255.406 195.077V196.236C255.706 196.179 256.188 196.084 256.382 196.053C256.577 196.033 256.761 196.023 256.933 196.023C258.111 196.023 258.895 196.4 259.285 197.155C259.526 197.675 259.645 198.572 259.643 199.846V215.122C259.643 216.971 259.356 218.158 258.784 218.682C258.211 219.214 257.214 219.569 255.793 219.746V220.59H269.298V219.746C267.915 219.706 266.902 219.441 266.258 218.952C265.612 218.458 265.291 217.492 265.293 216.053V199.219C266.37 198.152 267.248 197.391 267.927 196.935C269.143 196.132 270.338 195.732 271.514 195.734C273.226 195.734 274.404 196.302 275.048 197.437C275.686 198.572 276.005 200 276.005 201.723V214.559C276.005 216.611 275.714 217.941 275.131 218.549C274.551 219.157 273.529 219.563 272.065 219.765V220.609H285.274V219.765C283.918 219.748 282.953 219.416 282.378 218.77C281.803 218.129 281.517 217.088 281.519 215.646L281.527 215.635ZM249.656 196.293C247.053 193.694 243.394 192.386 239.419 192.386C235.444 192.386 231.792 193.758 229.258 196.517C226.724 199.273 225.458 202.646 225.458 206.636C225.458 210.908 226.789 214.456 229.452 217.28C232.123 220.104 235.741 221.517 239.594 221.517C243.443 221.517 247.236 220.047 249.763 217.098C252.288 214.146 253.552 210.68 253.555 206.697C253.555 202.363 252.252 198.896 249.645 196.297L249.656 196.293ZM246.035 216.547C244.875 218.644 243.172 219.721 240.928 219.777C238.057 219.853 235.771 218.37 234.069 215.327C232.372 212.291 231.446 208.886 231.371 205.409C231.244 200.94 232.162 197.767 234.126 195.89C235.258 194.813 236.62 194.256 238.211 194.218C241.142 194.139 243.422 195.609 245.051 198.626C246.685 201.653 247.546 204.897 247.635 208.358C247.721 211.704 247.185 214.428 246.027 216.528L246.035 216.547ZM181.473 192.181C179.573 192.181 177.718 192.742 175.91 193.865C174.906 194.508 173.742 195.488 172.417 196.806V192.759C172.416 192.648 172.39 192.539 172.341 192.44C172.318 192.398 172.285 192.364 172.244 192.34C172.203 192.316 172.157 192.303 172.11 192.303C168.18 193.667 165.802 194.355 165.695 194.381L162.393 195.457V196.452C162.754 196.376 163.267 196.251 163.662 196.183C163.855 196.157 164.061 196.147 164.282 196.152C165.308 196.152 166.004 196.368 166.372 196.798C166.744 197.229 166.931 198.207 166.934 199.732V228.604C166.934 230.063 166.678 231.138 166.166 231.827C165.665 232.503 164.464 232.91 162.598 233.024V234.023H177.817V232.967C175.593 232.807 174.149 232.498 173.485 232.039C172.821 231.576 172.488 230.334 172.486 228.315V218.447C173.568 219.572 174.751 220.343 176.035 220.761C176.853 221.04 177.829 221.178 178.961 221.175C182.586 221.175 186.185 219.541 188.586 216.281C190.988 213.02 191.961 209.38 191.961 205.375C191.961 201.37 190.965 198.071 188.974 195.723C188.057 194.62 186.909 193.733 185.612 193.122C184.315 192.512 182.899 192.193 181.465 192.189L181.473 192.181ZM184.038 215.867C182.5 218.02 180.652 219.097 178.494 219.097C177.09 219.097 175.872 218.762 174.838 218.093C173.804 217.425 173.027 216.409 172.505 215.046V199.941C172.502 199.059 173.115 198.164 174.344 197.254C175.56 196.342 176.915 195.886 178.41 195.886C180.513 195.886 182.359 196.797 183.95 198.618C185.546 200.442 186.344 203.196 186.344 206.88C186.344 210.566 185.577 213.72 184.038 215.878V215.867Z" fill="black"/>
<path d="M173.082 152.562C186.351 152.479 193.374 146.118 193.374 146.118L193.07 146.425C199.549 140.737 202.288 133.323 199.172 129.337C197.299 126.935 193.712 126.255 189.604 127.156H189.574C189.574 127.156 182.088 129.428 178.975 126.217C176.863 124.04 176.722 120.053 177.885 115.676H177.839L178.147 114.764C179.123 111.65 180.526 108.687 182.316 105.959C187.52 97.7363 194.292 90.6189 202.247 85.0135C194.126 82.1193 185.294 81.8943 177.036 84.3713C168.779 86.8484 161.529 91.898 156.342 98.7842C151.155 105.67 148.304 114.033 148.203 122.653C148.102 131.273 150.757 139.701 155.78 146.707C160.743 150.515 166.826 152.577 173.082 152.562Z" fill="url(#paint0_linear_36_60)"/>
<path d="M218.879 96.2274C215.93 95.7127 212.905 95.8411 210.01 96.6039C207.115 97.3666 204.419 98.7457 202.106 100.647C201.739 100.933 201.379 101.223 201.027 101.517C186.587 114.486 194.32 119.947 198.013 120.456C199.413 120.584 200.769 121.009 201.991 121.702C203.213 122.395 204.273 123.341 205.1 124.477C209.258 129.816 205.366 139.791 196.417 146.752C194.428 148.309 192.267 149.632 189.976 150.697C181.453 154.846 169.662 154.497 162.168 153.687C169.935 160.406 179.968 163.919 190.23 163.514C200.492 163.109 210.216 158.816 217.43 151.506C224.643 144.195 228.807 134.415 229.075 124.148C229.343 113.882 225.697 103.897 218.875 96.2198L218.879 96.2274Z" fill="url(#paint1_linear_36_60)"/>
<path d="M173.082 152.562C186.351 152.479 193.377 146.118 193.377 146.118L193.073 146.425C199.552 140.737 202.292 133.323 199.172 129.337C197.299 126.935 193.712 126.255 189.604 127.156H189.574C189.574 127.156 182.088 129.428 178.975 126.217C176.863 124.04 176.722 120.053 177.889 115.676H177.839L178.143 114.764C179.12 111.65 180.523 108.687 182.312 105.959C187.107 98.3413 193.271 91.6767 200.491 86.3017C192.321 83.6802 183.512 83.8496 175.449 86.7833C167.386 89.717 160.528 95.2485 155.953 102.507C151.379 109.766 149.348 118.34 150.18 126.879C151.012 135.419 154.659 143.439 160.549 149.678C164.458 151.568 168.743 152.553 173.085 152.559" fill="url(#paint2_linear_36_60)"/>
<path d="M216.143 95.9234C211.048 95.7455 206.062 97.4225 202.11 100.643C201.744 100.928 201.383 101.218 201.027 101.513C186.587 114.483 194.324 119.943 198.013 120.456C199.413 120.583 200.77 121.008 201.993 121.701C203.216 122.394 204.276 123.341 205.104 124.477C209.258 129.816 205.37 139.791 196.417 146.748C194.429 148.305 192.27 149.628 189.98 150.693C182.585 154.295 172.732 154.512 165.356 153.976C173.157 159.873 182.902 162.596 192.629 161.597C202.357 160.597 211.344 155.949 217.782 148.588C224.22 141.228 227.63 131.702 227.326 121.928C227.022 112.154 223.026 102.858 216.143 95.912V95.9234Z" fill="url(#paint3_linear_36_60)"/>
<path d="M226.817 82.7374C226.817 84.5243 226.108 86.238 224.844 87.5015C223.581 88.765 221.867 89.4748 220.08 89.4748C218.293 89.4748 216.579 88.765 215.316 87.5015C214.052 86.238 213.343 84.5243 213.343 82.7374C213.343 80.9505 214.052 79.2368 215.316 77.9733C216.579 76.7098 218.293 76 220.08 76C221.867 76 223.581 76.7098 224.844 77.9733C226.108 79.2368 226.817 80.9505 226.817 82.7374Z" fill="url(#paint4_linear_36_60)"/>
<path d="M226.548 82.7487C226.547 83.5946 226.38 84.4321 226.056 85.2133C225.732 85.9946 225.257 86.7044 224.658 87.3021C224.06 87.8999 223.35 88.3739 222.568 88.6971C221.786 89.0203 220.949 89.1864 220.103 89.1859C219.257 89.1854 218.42 89.0184 217.638 88.6942C216.857 88.3701 216.147 87.8952 215.549 87.2967C214.952 86.6983 214.478 85.988 214.154 85.2063C213.831 84.4247 213.665 83.587 213.666 82.7411C213.667 81.0329 214.346 79.395 215.555 78.1878C216.763 76.9806 218.402 76.3029 220.11 76.3039C221.819 76.305 223.457 76.9845 224.664 78.1932C225.871 79.4018 226.549 81.0405 226.548 82.7487Z" fill="url(#paint5_linear_36_60)"/>
<path d="M224.971 82.9502C225.161 83.4633 225.248 84.0089 225.227 84.5557C225.207 85.1026 225.078 85.64 224.849 86.1371C224.621 86.6342 224.296 87.0813 223.894 87.4529C223.492 87.8244 223.021 88.113 222.508 88.3021C221.994 88.4913 221.449 88.5773 220.902 88.5552C220.355 88.5332 219.818 88.4035 219.321 88.1735C218.825 87.9436 218.378 87.618 218.008 87.2153C217.637 86.8126 217.35 86.3408 217.162 85.8268C216.783 84.792 216.831 83.6493 217.294 82.6494C217.757 81.6494 218.597 80.874 219.631 80.4931C220.665 80.1122 221.808 80.157 222.809 80.6177C223.81 81.0783 224.587 81.9172 224.971 82.9502Z" fill="url(#paint6_linear_36_60)"/>
<path d="M225.187 81.7493C225.187 82.4163 225.056 83.0767 224.801 83.6929C224.545 84.309 224.171 84.8689 223.7 85.3405C223.228 85.8121 222.668 86.1862 222.052 86.4414C221.436 86.6967 220.775 86.828 220.109 86.828C219.442 86.828 218.781 86.6967 218.165 86.4414C217.549 86.1862 216.989 85.8121 216.517 85.3405C216.046 84.8689 215.672 84.309 215.416 83.6929C215.161 83.0767 215.03 82.4163 215.03 81.7493C215.03 80.4024 215.565 79.1106 216.517 78.1582C217.47 77.2057 218.762 76.6706 220.109 76.6706C221.456 76.6706 222.747 77.2057 223.7 78.1582C224.652 79.1106 225.187 80.4024 225.187 81.7493Z" fill="url(#paint7_linear_36_60)"/>
<path d="M220.095 76.2964C219.192 76.2963 218.298 76.4861 217.472 76.8535C216.647 77.2209 215.908 77.7577 215.303 78.4292C214.698 79.1006 214.241 79.8916 213.962 80.751C213.682 81.6104 213.587 82.5189 213.681 83.4176C217.844 84.8168 222.35 84.8168 226.513 83.4176C226.609 82.5187 226.514 81.6097 226.235 80.7498C225.956 79.8899 225.499 79.0983 224.894 78.4266C224.289 77.7549 223.55 77.2181 222.723 76.8511C221.897 76.4841 220.999 76.2951 220.095 76.2964Z" fill="url(#paint8_linear_36_60)"/>
<path d="M220.095 76.6688C219.234 76.6671 218.387 76.8848 217.633 77.3014C216.879 77.718 216.244 78.3196 215.788 79.0497C215.331 79.7798 215.068 80.6141 215.023 81.4741C214.978 82.334 215.153 83.1912 215.531 83.9648C218.537 84.6373 221.654 84.6373 224.659 83.9648C225.037 83.1915 225.212 82.3346 225.167 81.475C225.123 80.6154 224.86 79.7813 224.404 79.0513C223.948 78.3214 223.313 77.7196 222.56 77.3028C221.807 76.8859 220.956 76.6678 220.095 76.6688Z" fill="url(#paint9_linear_36_60)"/>
<path d="M178.546 152.148C183.949 151.534 189.079 149.445 193.374 146.11L193.07 146.422C197.934 142.15 200.685 136.91 200.442 132.871C196.368 133.255 192.158 133.464 187.852 133.464C181.758 133.474 175.67 133.054 169.635 132.206C169.518 135.987 170.258 139.746 171.802 143.2C173.345 146.654 175.651 149.713 178.546 152.148Z" fill="url(#paint10_linear_36_60)"/>
<path d="M206.522 132.149C204.943 138.039 201.374 143.202 196.421 146.76C194.432 148.316 192.271 149.64 189.98 150.704C186.94 152.118 183.703 153.079 180.381 153.547C184.372 156.31 189.081 157.851 193.933 157.981C198.784 158.11 203.569 156.823 207.701 154.277C211.833 151.731 215.134 148.036 217.199 143.644C219.265 139.251 220.006 134.352 219.331 129.546C215.111 130.663 210.841 131.531 206.522 132.149Z" fill="url(#paint11_linear_36_60)"/>
<path d="M187.852 133.467C192.154 133.467 196.364 133.262 200.438 132.875C200.386 131.59 199.944 130.351 199.169 129.325C197.295 126.924 193.708 126.244 189.6 127.144H189.57C189.57 127.144 182.084 129.413 178.972 126.206C176.859 124.028 176.718 120.042 177.885 115.664H177.835L178.143 114.752C179.12 111.639 180.523 108.676 182.312 105.948C187.107 98.33 193.271 91.6653 200.491 86.2904C194.322 84.3132 187.755 83.9164 181.393 85.1364C175.03 86.3563 169.076 89.1539 164.076 93.2727C159.075 97.3915 155.189 102.7 152.773 108.71C150.357 114.721 149.489 121.243 150.247 127.676C162.386 131.633 175.086 133.59 187.852 133.471" fill="url(#paint12_linear_36_60)"/>
<path d="M216.143 95.9234C211.047 95.7446 206.059 97.4216 202.106 100.643C201.739 100.932 201.378 101.222 201.023 101.513C186.583 114.483 194.316 119.943 198.01 120.456C199.41 120.583 200.766 121.008 201.989 121.701C203.212 122.394 204.273 123.341 205.1 124.477C205.88 125.577 206.411 126.834 206.655 128.16C206.899 129.487 206.851 130.851 206.514 132.156C213.54 131.184 220.446 129.485 227.121 127.087C227.251 125.77 227.314 124.45 227.311 123.128C227.332 112.938 223.315 103.155 216.139 95.9196" fill="url(#paint13_linear_36_60)"/>
<path d="M174.111 144.252C177.981 145.567 182.097 145.994 186.154 145.501C190.211 145.007 194.105 143.606 197.546 141.402C200.616 136.887 201.418 132.213 199.169 129.325C197.295 126.92 193.708 126.251 189.6 127.144H189.574C189.574 127.144 182.084 129.413 178.972 126.206C176.863 124.028 176.718 120.042 177.885 115.664H177.839L178.143 114.752C179.121 111.639 180.525 108.676 182.316 105.948C185.21 101.225 188.689 96.8861 192.671 93.0354L191.622 92.6516C184.814 90.456 177.415 91.026 171.023 94.2387C164.632 97.4513 159.76 103.049 157.46 109.822C155.16 116.596 155.616 124.003 158.73 130.443C161.844 136.883 167.366 141.84 174.104 144.244L174.111 144.252Z" fill="url(#paint14_linear_36_60)"/>
<path d="M202.11 100.643C201.74 100.932 201.379 101.222 201.027 101.513C186.587 114.483 194.32 119.943 198.013 120.456C199.413 120.584 200.769 121.009 201.991 121.702C203.213 122.395 204.273 123.341 205.1 124.477C205.863 125.538 206.388 126.751 206.64 128.034C206.893 129.316 206.866 130.638 206.563 131.909C209.404 126.893 210.583 121.106 209.931 115.379C209.279 109.651 206.83 104.277 202.934 100.027C202.656 100.227 202.381 100.432 202.11 100.643Z" fill="url(#paint15_linear_36_60)"/>
<path d="M188.658 147.615C189.621 147.615 190.572 147.57 191.512 147.482C192.168 147.071 192.788 146.615 193.374 146.114L193.07 146.422C199.549 140.737 202.288 133.323 199.169 129.333C197.299 126.931 193.712 126.263 189.6 127.156H189.574C189.574 127.156 182.088 129.424 178.972 126.217C176.863 124.04 176.718 120.053 177.885 115.676H177.839L178.143 114.764C179.121 111.65 180.525 108.687 182.316 105.959C186.551 99.1755 191.9 93.1553 198.139 88.1524C193.947 86.7806 189.508 86.3345 185.128 86.8447C180.747 87.3549 176.529 88.8094 172.765 91.1077C169.001 93.406 165.78 96.4935 163.325 100.157C160.87 103.821 159.239 107.974 158.544 112.329C157.85 116.684 158.108 121.138 159.302 125.384C160.496 129.629 162.596 133.566 165.458 136.921C168.321 140.276 171.877 142.97 175.881 144.818C179.886 146.665 184.244 147.622 188.654 147.622L188.658 147.615Z" fill="url(#paint16_linear_36_60)"/>
<path d="M202.11 100.643C201.74 100.932 201.379 101.222 201.027 101.513C186.587 114.483 194.32 119.943 198.013 120.456C199.413 120.584 200.769 121.009 201.991 121.702C203.213 122.395 204.273 123.341 205.1 124.477C209.216 129.759 205.446 139.589 196.687 146.547C201.746 145.163 206.363 142.497 210.091 138.808C213.819 135.119 216.532 130.531 217.969 125.486C219.407 120.442 219.519 115.113 218.295 110.013C217.071 104.913 214.553 100.214 210.983 96.3718C207.741 97.1081 204.708 98.5683 202.11 100.643Z" fill="url(#paint17_linear_36_60)"/>
<path d="M187.852 133.467C192.158 133.467 196.364 133.262 200.438 132.875C200.386 131.59 199.944 130.351 199.169 129.325C197.295 126.924 193.708 126.255 189.6 127.148H189.57C189.57 127.148 182.084 129.417 178.972 126.206C176.859 124.032 176.718 120.046 177.885 115.664H177.839L178.143 114.752C179.12 111.64 180.523 108.679 182.312 105.952C186.548 99.1676 191.899 93.1474 198.139 88.1448C192.423 86.2786 186.283 86.1435 180.49 87.7565C174.697 89.3694 169.511 92.6585 165.582 97.2104C161.653 101.762 159.157 107.374 158.407 113.34C157.658 119.306 158.689 125.361 161.37 130.743C170.077 132.582 178.953 133.496 187.852 133.467Z" fill="url(#paint18_linear_36_60)"/>
<path d="M202.11 100.643C201.74 100.932 201.379 101.222 201.027 101.513C186.587 114.483 194.32 119.943 198.013 120.456C199.413 120.584 200.769 121.009 201.991 121.702C203.213 122.395 204.273 123.341 205.1 124.477C205.881 125.576 206.411 126.832 206.656 128.158C206.901 129.484 206.854 130.847 206.518 132.153C209.844 131.671 213.05 131.07 216.136 130.348C218.787 124.822 219.713 118.626 218.794 112.567C217.874 106.507 215.151 100.865 210.979 96.3756C207.739 97.1113 204.707 98.5702 202.11 100.643Z" fill="url(#paint19_linear_36_60)"/>
<path opacity="0.5" d="M188.236 172.197C203.907 172.197 216.614 170.479 216.614 168.359C216.614 166.242 203.907 164.525 188.236 164.525C172.565 164.525 159.858 166.242 159.858 168.363C159.858 170.479 172.565 172.197 188.236 172.197Z" fill="url(#paint20_radial_36_60)"/>
<path d="M130.04 268.8V271.64H141.96V268.8H130.04ZM125.6 265.32H146.64V275.16H125.6V265.32ZM133.16 273.68L138.6 274C138.2 275.067 137.773 276.093 137.32 277.08C136.867 278.067 136.453 278.907 136.08 279.6L131.88 279.04C132.147 278.213 132.4 277.307 132.64 276.32C132.88 275.333 133.053 274.453 133.16 273.68ZM122.24 277.6H150.4V290.64H145.64V281.72H126.84V290.68H122.24V277.6ZM124.84 285.24H147.68V289.36H124.84V285.24ZM119.16 259.28H153.28V267.8H148.68V263.32H123.56V267.8H119.16V259.28ZM146 253.2L151.16 254.76C150.307 255.907 149.453 257.027 148.6 258.12C147.747 259.213 146.96 260.133 146.24 260.88L142.32 259.44C142.747 258.853 143.187 258.2 143.64 257.48C144.12 256.76 144.56 256.027 144.96 255.28C145.387 254.533 145.733 253.84 146 253.2ZM121.4 255.32L125.52 253.56C126.213 254.333 126.893 255.2 127.56 256.16C128.253 257.093 128.773 257.933 129.12 258.68L124.72 260.6C124.427 259.88 123.96 259.027 123.32 258.04C122.68 257.027 122.04 256.12 121.4 255.32ZM131.4 254.32L135.6 252.88C136.187 253.68 136.773 254.587 137.36 255.6C137.973 256.613 138.4 257.493 138.64 258.24L134.24 259.84C134 259.12 133.6 258.24 133.04 257.2C132.507 256.133 131.96 255.173 131.4 254.32ZM158.24 277.48H193.92V281.44H158.24V277.48ZM158.36 259.56H193.8V263.48H158.36V259.56ZM160 266.72H192.24V270.48H160V266.72ZM161.96 272.24H190.4V275.72H161.96V272.24ZM173.56 268.6H178.32V290.6H173.56V268.6ZM170.08 252.96H174.56V261.44H170.08V252.96ZM177.52 252.96H182.04V261.16H177.52V252.96ZM172.68 279.24L176.48 280.96C175.227 282.347 173.707 283.64 171.92 284.84C170.16 286.013 168.267 287.04 166.24 287.92C164.213 288.827 162.173 289.56 160.12 290.12C159.907 289.72 159.613 289.267 159.24 288.76C158.893 288.28 158.52 287.8 158.12 287.32C157.747 286.84 157.387 286.44 157.04 286.12C159.04 285.693 161.027 285.147 163 284.48C165 283.813 166.84 283.027 168.52 282.12C170.2 281.213 171.587 280.253 172.68 279.24ZM179.28 279.12C180.107 279.92 181.093 280.68 182.24 281.4C183.387 282.093 184.64 282.733 186 283.32C187.387 283.88 188.84 284.373 190.36 284.8C191.907 285.227 193.467 285.56 195.04 285.8C194.667 286.173 194.267 286.6 193.84 287.08C193.44 287.587 193.053 288.107 192.68 288.64C192.333 289.2 192.04 289.707 191.8 290.16C190.2 289.76 188.627 289.24 187.08 288.6C185.56 287.987 184.107 287.28 182.72 286.48C181.333 285.68 180.027 284.787 178.8 283.8C177.573 282.813 176.493 281.76 175.56 280.64L179.28 279.12ZM186.72 253.32L191.72 254.52C191.107 255.613 190.48 256.68 189.84 257.72C189.2 258.733 188.613 259.6 188.08 260.32L184.16 259.12C184.48 258.587 184.8 257.987 185.12 257.32C185.44 256.627 185.733 255.933 186 255.24C186.293 254.52 186.533 253.88 186.72 253.32ZM181.44 261.88L186.52 263.08C185.96 264.013 185.427 264.92 184.92 265.8C184.413 266.653 183.96 267.387 183.56 268L179.48 266.88C179.827 266.133 180.187 265.307 180.56 264.4C180.933 263.467 181.227 262.627 181.44 261.88ZM161.2 254.6L165.32 253.2C165.907 254.027 166.493 254.987 167.08 256.08C167.667 257.147 168.093 258.067 168.36 258.84L164.04 260.44C163.827 259.64 163.44 258.693 162.88 257.6C162.32 256.507 161.76 255.507 161.2 254.6ZM166.28 263.56L170.96 262.8C171.307 263.36 171.64 264 171.96 264.72C172.307 265.413 172.56 266.027 172.72 266.56L167.84 267.4C167.707 266.893 167.493 266.267 167.2 265.52C166.907 264.773 166.6 264.12 166.28 263.56ZM214.24 255H234V259.48H214.24V255ZM213.2 269.36H234.8V273.88H213.2V269.36ZM226.04 256.96H230.6V290.6H226.04V256.96ZM217.04 257.08H221.52V270.64C221.52 272.293 221.453 274.04 221.32 275.88C221.187 277.693 220.92 279.507 220.52 281.32C220.147 283.107 219.587 284.827 218.84 286.48C218.12 288.133 217.133 289.6 215.88 290.88C215.613 290.587 215.267 290.267 214.84 289.92C214.413 289.573 213.96 289.227 213.48 288.88C213.027 288.56 212.627 288.307 212.28 288.12C213.347 286.947 214.187 285.64 214.8 284.2C215.44 282.76 215.92 281.253 216.24 279.68C216.56 278.08 216.773 276.507 216.88 274.96C216.987 273.413 217.04 271.96 217.04 270.6V257.08ZM197.72 254.92H212.32V259.24H197.72V254.92ZM202.24 267.24H211.84V285.72H202.24V281.52H207.76V271.48H202.24V267.24ZM202.4 257.04L206.72 258C206.24 260.533 205.627 263.053 204.88 265.56C204.133 268.067 203.24 270.413 202.2 272.6C201.16 274.787 199.947 276.707 198.56 278.36C198.507 277.933 198.387 277.36 198.2 276.64C198.013 275.92 197.8 275.2 197.56 274.48C197.32 273.733 197.093 273.133 196.88 272.68C198.293 270.787 199.44 268.467 200.32 265.72C201.2 262.973 201.893 260.08 202.4 257.04ZM200.16 267.24H204.12V288.68H200.16V267.24ZM263.68 271.48L267.16 272.92C266.333 273.747 265.36 274.52 264.24 275.24C263.12 275.96 261.933 276.587 260.68 277.12C259.453 277.653 258.213 278.133 256.96 278.56C256.667 278.107 256.28 277.627 255.8 277.12C255.32 276.613 254.853 276.173 254.4 275.8C255.547 275.507 256.693 275.147 257.84 274.72C259.013 274.267 260.107 273.773 261.12 273.24C262.16 272.68 263.013 272.093 263.68 271.48ZM267.56 275.12L271.04 276.56C269.973 277.707 268.693 278.747 267.2 279.68C265.733 280.587 264.12 281.387 262.36 282.08C260.627 282.773 258.84 283.36 257 283.84C256.733 283.387 256.387 282.867 255.96 282.28C255.533 281.693 255.107 281.2 254.68 280.8C256.36 280.453 258.013 280.013 259.64 279.48C261.293 278.947 262.813 278.307 264.2 277.56C265.587 276.813 266.707 276 267.56 275.12ZM270.48 279.68L274.6 281.36C273.213 282.987 271.52 284.387 269.52 285.56C267.52 286.707 265.293 287.68 262.84 288.48C260.413 289.28 257.827 289.933 255.08 290.44C254.84 289.853 254.493 289.2 254.04 288.48C253.587 287.76 253.12 287.147 252.64 286.64C255.12 286.293 257.507 285.827 259.8 285.24C262.093 284.627 264.16 283.867 266 282.96C267.84 282.027 269.333 280.933 270.48 279.68ZM258.2 252.96L262.56 254.04C261.68 256.413 260.52 258.68 259.08 260.84C257.667 262.973 256.16 264.76 254.56 266.2C254.32 265.933 253.973 265.627 253.52 265.28C253.093 264.907 252.653 264.56 252.2 264.24C251.747 263.893 251.347 263.613 251 263.4C252.547 262.173 253.947 260.64 255.2 258.8C256.48 256.96 257.48 255.013 258.2 252.96ZM258.16 257.08H274.32V260.88H255.88L258.16 257.08ZM267.68 258.04L272.16 259C271.12 261.587 269.72 263.813 267.96 265.68C266.2 267.547 264.16 269.133 261.84 270.44C259.547 271.747 257.04 272.813 254.32 273.64C254.133 273.32 253.867 272.933 253.52 272.48C253.2 272.027 252.853 271.573 252.48 271.12C252.107 270.64 251.773 270.267 251.48 270C254.12 269.387 256.507 268.56 258.64 267.52C260.8 266.453 262.653 265.147 264.2 263.6C265.747 262.027 266.907 260.173 267.68 258.04ZM258.16 259.28C258.987 260.747 260.2 262.173 261.8 263.56C263.4 264.947 265.347 266.173 267.64 267.24C269.96 268.28 272.613 269.04 275.6 269.52C275.307 269.813 275 270.187 274.68 270.64C274.36 271.093 274.04 271.56 273.72 272.04C273.427 272.52 273.187 272.96 273 273.36C269.987 272.667 267.307 271.693 264.96 270.44C262.64 269.16 260.653 267.72 259 266.12C257.373 264.493 256.093 262.827 255.16 261.12L258.16 259.28ZM248 258.16H252.16V283.88H248V258.16ZM244.36 253.16L248.76 254.44C248.013 256.787 247.107 259.147 246.04 261.52C245 263.893 243.853 266.147 242.6 268.28C241.373 270.387 240.08 272.24 238.72 273.84C238.613 273.44 238.413 272.92 238.12 272.28C237.853 271.613 237.56 270.947 237.24 270.28C236.947 269.587 236.667 269.04 236.4 268.64C237.493 267.36 238.533 265.893 239.52 264.24C240.507 262.587 241.413 260.813 242.24 258.92C243.067 257.027 243.773 255.107 244.36 253.16ZM241.24 264.08L245.64 259.64L245.8 259.72V290.56H241.24V264.08Z" fill="black"/>
<defs>
<linearGradient id="paint0_linear_36_60" x1="147.496" y1="117.614" x2="230.408" y2="117.614" gradientUnits="userSpaceOnUse">
<stop stop-color="#003288"/>
<stop offset="1" stop-color="#000548"/>
</linearGradient>
<linearGradient id="paint1_linear_36_60" x1="147.443" y1="129.74" x2="230.374" y2="129.74" gradientUnits="userSpaceOnUse">
<stop stop-color="#003288"/>
<stop offset="1" stop-color="#000548"/>
</linearGradient>
<linearGradient id="paint2_linear_36_60" x1="195.293" y1="166.866" x2="155.499" y2="102.596" gradientUnits="userSpaceOnUse">
<stop stop-color="#007CC6"/>
<stop offset="0.396" stop-color="#003288"/>
<stop offset="1" stop-color="#001952"/>
</linearGradient>
<linearGradient id="paint3_linear_36_60" x1="205.826" y1="163.301" x2="178.022" y2="90.934" gradientUnits="userSpaceOnUse">
<stop stop-color="#007CC6"/>
<stop offset="0.396" stop-color="#003288"/>
<stop offset="1" stop-color="#001952"/>
</linearGradient>
<linearGradient id="paint4_linear_36_60" x1="213.339" y1="82.7374" x2="226.817" y2="82.7374" gradientUnits="userSpaceOnUse">
<stop stop-color="#E85400"/>
<stop offset="1" stop-color="#AD3F00"/>
</linearGradient>
<linearGradient id="paint5_linear_36_60" x1="221.836" y1="88.4905" x2="218.408" y2="77.0905" gradientUnits="userSpaceOnUse">
<stop stop-color="#FFC400"/>
<stop offset="0.396" stop-color="#E85400"/>
<stop offset="1" stop-color="#AD3F00"/>
</linearGradient>
<linearGradient id="paint6_linear_36_60" x1="223.644" y1="87.343" x2="219.293" y2="82.3498" gradientUnits="userSpaceOnUse">
<stop stop-color="#FFE7C7"/>
<stop offset="0.033" stop-color="#FFD99F"/>
<stop offset="0.093" stop-color="#FFC400"/>
<stop offset="0.956" stop-color="#E85400"/>
</linearGradient>
<linearGradient id="paint7_linear_36_60" x1="220.107" y1="76.6383" x2="220.107" y2="88.6843" gradientUnits="userSpaceOnUse">
<stop stop-color="white"/>
<stop offset="0.396" stop-color="#E85400"/>
<stop offset="1" stop-color="#FFC400"/>
</linearGradient>
<linearGradient id="paint8_linear_36_60" x1="220.099" y1="76.6802" x2="220.099" y2="91.7472" gradientUnits="userSpaceOnUse">
<stop stop-color="#C24600"/>
<stop offset="0.187" stop-color="#E85400"/>
<stop offset="1" stop-color="#FFC400"/>
</linearGradient>
<linearGradient id="paint9_linear_36_60" x1="220.095" y1="76.9576" x2="220.095" y2="84.3714" gradientUnits="userSpaceOnUse">
<stop stop-color="white"/>
<stop offset="0.396" stop-color="#E85400"/>
<stop offset="1" stop-color="#FFC400"/>
</linearGradient>
<linearGradient id="paint10_linear_36_60" x1="204.093" y1="157.176" x2="192.804" y2="130.207" gradientUnits="userSpaceOnUse">
<stop stop-color="#98C5EA"/>
<stop offset="0.033" stop-color="#489BD7"/>
<stop offset="0.093" stop-color="#007CC6"/>
<stop offset="0.956" stop-color="#003288"/>
</linearGradient>
<linearGradient id="paint11_linear_36_60" x1="209.774" y1="151.476" x2="195.711" y2="124.788" gradientUnits="userSpaceOnUse">
<stop stop-color="#98C5EA"/>
<stop offset="0.033" stop-color="#489BD7"/>
<stop offset="0.093" stop-color="#007CC6"/>
<stop offset="0.956" stop-color="#003288"/>
</linearGradient>
<linearGradient id="paint12_linear_36_60" x1="175.236" y1="85.4278" x2="175.236" y2="239.955" gradientUnits="userSpaceOnUse">
<stop stop-color="#001952"/>
<stop offset="0.187" stop-color="#003288"/>
<stop offset="1" stop-color="#2583C8"/>
</linearGradient>
<linearGradient id="paint13_linear_36_60" x1="209.961" y1="85.4354" x2="209.961" y2="239.955" gradientUnits="userSpaceOnUse">
<stop stop-color="#001952"/>
<stop offset="0.187" stop-color="#003288"/>
<stop offset="1" stop-color="#2583C8"/>
</linearGradient>
<linearGradient id="paint14_linear_36_60" x1="157.061" y1="118.48" x2="208.41" y2="118.48" gradientUnits="userSpaceOnUse">
<stop stop-color="#98C5EA"/>
<stop offset="0.033" stop-color="#489BD7"/>
<stop offset="0.093" stop-color="#007CC6"/>
<stop offset="0.956" stop-color="#003288"/>
</linearGradient>
<linearGradient id="paint15_linear_36_60" x1="158.007" y1="115.968" x2="191.911" y2="115.968" gradientUnits="userSpaceOnUse">
<stop stop-color="#98C5EA"/>
<stop offset="0.033" stop-color="#489BD7"/>
<stop offset="0.093" stop-color="#007CC6"/>
<stop offset="0.956" stop-color="#003288"/>
</linearGradient>
<linearGradient id="paint16_linear_36_60" x1="179.31" y1="115.364" x2="179.31" y2="151.711" gradientUnits="userSpaceOnUse">
<stop stop-color="white"/>
<stop offset="0.396" stop-color="#003288"/>
<stop offset="1" stop-color="#007CC6"/>
</linearGradient>
<linearGradient id="paint17_linear_36_60" x1="205.876" y1="115.338" x2="205.876" y2="151.715" gradientUnits="userSpaceOnUse">
<stop stop-color="white"/>
<stop offset="0.396" stop-color="#003288"/>
<stop offset="1" stop-color="#007CC6"/>
</linearGradient>
<linearGradient id="paint18_linear_36_60" x1="179.302" y1="89.1176" x2="179.302" y2="142.834" gradientUnits="userSpaceOnUse">
<stop stop-color="white"/>
<stop offset="0.396" stop-color="#003288"/>
<stop offset="1" stop-color="#007CC6"/>
</linearGradient>
<linearGradient id="paint19_linear_36_60" x1="205.876" y1="89.1176" x2="205.876" y2="142.853" gradientUnits="userSpaceOnUse">
<stop stop-color="white"/>
<stop offset="0.396" stop-color="#003288"/>
<stop offset="1" stop-color="#007CC6"/>
</linearGradient>
<radialGradient id="paint20_radial_36_60" cx="0" cy="0" r="1" gradientUnits="userSpaceOnUse" gradientTransform="translate(188.236 168.359) scale(28.3784 3.838)">
<stop/>
<stop offset="0.394" stop-opacity="0.702"/>
<stop offset="1" stop-opacity="0"/>
</radialGradient>
</defs>
</svg>
