<svg width="145" height="26" viewBox="0 0 145 26" fill="none" xmlns="http://www.w3.org/2000/svg">
<path d="M69.4518 18.568L69.5208 18.802C70.3478 18.7 70.7508 18.346 71.0258 17.549L70.8298 17.435C70.5698 18.229 70.1498 18.515 69.4498 18.565L69.4518 18.568ZM70.0938 17.578C69.9191 17.4731 69.7306 17.393 69.5338 17.34L69.4318 17.524C69.6248 17.582 69.8368 17.677 69.9768 17.781L70.0908 17.58L70.0938 17.578ZM72.2598 17.57H73.4848C73.4318 17.9 73.2988 18.494 72.3948 18.631L72.4798 18.83C73.4978 18.641 73.6908 17.916 73.7398 17.371H72.2598V17.57ZM67.2418 17.659L67.3388 17.465C67.1018 17.333 66.9158 17.295 66.8528 17.279L66.7558 17.463C66.8138 17.481 67.0158 17.529 67.2418 17.656V17.659ZM66.7148 18.56L66.7688 18.784C67.6418 18.715 67.9598 18.274 68.1888 17.636L67.9958 17.516C67.7588 18.242 67.4198 18.524 66.7158 18.557L66.7148 18.56ZM67.1988 17.885C67.0468 17.7991 66.8831 17.7357 66.7128 17.697L66.6158 17.885C66.8878 17.975 66.8578 17.962 67.1018 18.081L67.1988 17.885ZM76.0458 17.559H75.8658V17.809H75.1758V17.979H75.8298C75.7128 18.137 75.4278 18.445 75.0968 18.573L75.2138 18.71C75.3158 18.66 75.5908 18.524 75.8638 18.18V18.639C75.8638 18.664 75.8608 18.687 75.7918 18.687C75.7228 18.687 75.6698 18.672 75.6028 18.664L75.6338 18.84C75.7278 18.848 75.7638 18.855 75.7838 18.855C75.9698 18.855 76.0438 18.817 76.0438 18.639V17.979H76.4078V17.809H76.0438V17.559H76.0458ZM77.9198 17.468V17.668H79.1898V17.468H77.9198ZM80.6118 18.138H82.2158V17.911H80.6118V18.138ZM77.7778 18.644H79.3618V18.443H77.7778V18.644ZM89.6348 8.12099V8.34299L89.9758 8.35799C90.1238 8.36799 90.2451 8.40599 90.3398 8.47199C90.4345 8.53732 90.4821 8.64032 90.4828 8.78099C90.4828 8.83365 90.4658 8.93632 90.4318 9.08899C90.3958 9.23899 90.3528 9.33599 90.3378 9.38099L88.8478 13.374L87.0178 9.41399C86.9657 9.29917 86.918 9.18241 86.8748 9.06399C86.8484 8.98915 86.8348 8.91036 86.8348 8.83099C86.8348 8.62499 86.9558 8.48765 87.1978 8.41899C87.3245 8.37699 87.5198 8.35232 87.7838 8.34499V8.12399H84.3468V8.34499C84.6115 8.38232 84.8108 8.46299 84.9448 8.58699C85.0801 8.71165 85.2371 8.96899 85.4158 9.35899L88.0058 14.751C88.0472 14.8639 88.0728 14.982 88.0818 15.102C88.0825 15.332 87.9211 15.805 87.5978 16.521C87.2745 17.2363 86.9671 17.5943 86.6758 17.595C86.5605 17.595 86.3688 17.545 86.1008 17.445C85.8338 17.345 85.5228 17.295 85.3878 17.295C85.1754 17.2873 84.9678 17.3586 84.8048 17.495C84.7298 17.5588 84.67 17.6387 84.6298 17.7287C84.5897 17.8187 84.5702 17.9165 84.5728 18.015C84.5728 18.337 84.7018 18.5713 84.9598 18.718C85.2178 18.866 85.6018 18.939 85.8968 18.939C86.5035 18.939 87.0051 18.683 87.4018 18.171C87.7971 17.6597 88.2111 16.8337 88.6438 15.693L91.1368 9.09299C91.2168 8.87165 91.3101 8.69799 91.4168 8.57199C91.5268 8.44699 91.7228 8.34199 91.9998 8.34199V8.12199H89.6298L89.6348 8.12099ZM49.2438 14.896C49.0991 15.0387 48.7971 15.1313 48.3378 15.174V15.395H52.0038V15.189C51.5708 15.146 51.2738 15.059 51.1048 14.924C50.9388 14.7887 50.8555 14.534 50.8548 14.16V10.876C50.8555 10.0313 50.7741 9.41432 50.6108 9.02499C50.3258 8.33199 49.6608 7.98899 48.8138 7.98899C48.2918 7.98899 47.7798 8.15265 47.2778 8.47999C46.9878 8.67099 46.7438 8.96099 46.3538 9.35899C46.2431 9.01565 46.1031 8.74399 45.9338 8.54399C45.6108 8.17399 45.0838 7.98899 44.5388 7.98899C44.1381 7.98899 43.7478 8.07965 43.3678 8.26099C42.9878 8.44099 42.6338 8.77099 42.1098 9.24699V8.17699C42.1109 8.12686 42.1082 8.07672 42.1018 8.02699C42.0971 8.00032 42.0811 7.98699 42.0538 7.98699C42.0258 7.98699 41.6868 8.10299 41.2158 8.27899L39.4948 8.86199V9.13999C39.5688 9.11399 39.7678 9.05599 39.8238 9.04499C39.8798 9.03399 39.9608 9.02499 40.0728 9.02499C40.3095 9.02499 40.4795 9.08499 40.5828 9.20499C40.6841 9.32699 40.7348 9.58365 40.7348 9.97499V14.066C40.7341 14.524 40.6288 14.8297 40.4188 14.983C40.2818 15.085 40.0068 15.151 39.5968 15.189V15.395H43.2938V15.189C42.8238 15.1837 42.5191 15.1047 42.3798 14.952C42.2405 14.7993 42.1705 14.522 42.1698 14.12V9.79099C42.4078 9.50599 42.5858 9.27499 42.8968 9.09899C43.2081 8.92232 43.5248 8.83399 43.8468 8.83399C44.4095 8.83399 44.7785 9.09299 44.9538 9.61099C45.0585 9.91632 45.1111 10.4737 45.1118 11.283V13.496C45.1118 14.2033 45.0428 14.6463 44.9048 14.825C44.7681 15.003 44.4491 15.1243 43.9478 15.189V15.395H47.6778V15.189C47.1931 15.173 46.8748 15.0543 46.7228 14.833C46.5741 14.6103 46.4998 14.2857 46.4998 13.859V9.80899C46.7848 9.51799 46.9278 9.30699 47.1238 9.17399C47.4618 8.94732 47.8021 8.83365 48.1448 8.83299C48.7141 8.83299 49.0968 9.04965 49.2928 9.48299C49.4028 9.72432 49.4581 10.101 49.4588 10.613V14.022C49.4595 14.46 49.3861 14.75 49.2388 14.892L49.2438 14.896ZM36.6458 8.34299L36.9868 8.35799C37.1355 8.36799 37.2568 8.40599 37.3508 8.47199C37.4455 8.53732 37.4931 8.64032 37.4938 8.78099C37.4938 8.83365 37.4768 8.93632 37.4428 9.08899C37.4098 9.23899 37.3638 9.33599 37.3488 9.38099L35.8588 13.374L34.0288 9.41399C33.9767 9.29917 33.929 9.18241 33.8858 9.06399C33.861 8.98873 33.8475 8.91021 33.8458 8.83099C33.8458 8.62499 33.9668 8.48765 34.2088 8.41899C34.3355 8.37699 34.5308 8.35232 34.7948 8.34499V8.12399H31.3578V8.34499C31.6205 8.38232 31.8198 8.46299 31.9558 8.58699C32.0911 8.71165 32.2481 8.96899 32.4268 9.35899L35.0188 14.751C35.0603 14.8639 35.0858 14.982 35.0948 15.102C35.0935 15.332 34.9325 15.805 34.6118 16.521C34.2878 17.2363 33.9805 17.5943 33.6898 17.595C33.5751 17.595 33.3835 17.545 33.1148 17.445C32.8468 17.345 32.5368 17.295 32.4018 17.295C32.1894 17.2873 31.9818 17.3586 31.8188 17.495C31.7438 17.5588 31.684 17.6387 31.6438 17.7287C31.6037 17.8187 31.5842 17.9165 31.5868 18.015C31.5868 18.337 31.7158 18.5713 31.9738 18.718C32.2308 18.866 32.6158 18.939 32.9108 18.939C33.5175 18.939 34.0181 18.683 34.4128 18.171C34.8088 17.6597 35.2231 16.8337 35.6558 15.693L38.1478 9.09299C38.2278 8.87165 38.3211 8.69799 38.4278 8.57199C38.5378 8.44699 38.7338 8.34199 39.0108 8.34199V8.12199H36.6408V8.34199L36.6458 8.34299ZM29.3868 11.289L28.3428 10.726C27.6148 10.346 27.2508 9.91299 27.2508 9.42699C27.2501 9.12165 27.3555 8.85499 27.5668 8.62699C27.7775 8.40032 28.0675 8.28699 28.4368 8.28699C29.0541 8.28699 29.5261 8.55065 29.8528 9.07799C30.0308 9.36399 30.2658 9.89099 30.3698 10.402H30.6138L30.4688 8.06499H30.2808C30.2544 8.11585 30.216 8.15946 30.1688 8.19199C30.105 8.22376 30.0339 8.23792 29.9628 8.23299C29.9188 8.23299 29.7301 8.18032 29.3968 8.07499C29.0995 7.97609 28.789 7.92282 28.4758 7.91699C27.8358 7.91699 27.1898 8.10599 26.7698 8.48699C26.3471 8.86699 26.1358 9.35265 26.1358 9.94399C26.1358 10.4233 26.2885 10.84 26.5938 11.194C26.8998 11.548 27.4948 11.899 28.1418 12.248L29.0278 12.755C29.3598 12.9503 29.5915 13.1503 29.7228 13.355C29.8561 13.5617 29.9225 13.776 29.9218 13.998C29.9218 14.3453 29.8071 14.6287 29.5778 14.848C29.3485 15.0673 29.0371 15.1767 28.6438 15.176C27.9338 15.176 27.3938 14.8807 27.0238 14.29C26.8178 13.97 26.6548 13.371 26.5348 12.77H26.2728V15.461H26.4798C26.5051 15.4003 26.5422 15.3453 26.5888 15.299C26.6332 15.2563 26.6922 15.2323 26.7538 15.232C26.8278 15.2327 27.0645 15.2853 27.4638 15.39C27.8645 15.4953 28.2228 15.548 28.5388 15.548C29.2928 15.548 29.9988 15.35 30.4638 14.955C30.9291 14.559 31.1618 14.0497 31.1618 13.427C31.1618 12.615 30.5018 11.902 29.3788 11.291L29.3868 11.289ZM65.3998 14.848C65.2665 15.0013 64.9711 15.109 64.5138 15.171V15.393H68.0378V15.171C67.6378 15.118 67.3698 15.008 67.2428 14.838C67.1135 14.67 67.0491 14.3057 67.0498 13.745V10.517C67.0498 9.89899 66.9658 9.40065 66.7978 9.02199C66.4868 8.30399 65.8078 7.94499 64.9518 7.94499C64.4138 7.94499 63.9131 8.10299 63.4498 8.41899C63.1898 8.59699 62.8945 8.87699 62.5638 9.25899V4.39899L62.5478 4.34299L61.6928 4.57999C61.5595 4.62265 61.3235 4.69199 60.9848 4.78799L59.9638 5.08099V5.36599C60.0378 5.34799 60.2258 5.30799 60.3128 5.29499C60.3688 5.28765 60.4255 5.28432 60.4828 5.28499C60.7788 5.28499 60.9648 5.35465 61.0408 5.49399C61.1168 5.63265 61.1548 5.85065 61.1548 6.14799V13.745C61.1548 14.325 61.0881 14.6927 60.9548 14.848C60.8188 15.0033 60.5351 15.11 60.1038 15.168V15.39H63.6908V15.169C63.2435 15.1057 62.9508 15.0003 62.8128 14.853C62.6748 14.705 62.6061 14.3357 62.6068 13.745V9.84499C62.6068 9.75499 62.7995 9.56232 63.1848 9.26699C63.5695 8.97165 63.9681 8.82399 64.3808 8.82399C64.8541 8.82399 65.1775 8.98165 65.3508 9.29699C65.5221 9.61299 65.6081 10.0273 65.6088 10.54V13.745C65.6088 14.3257 65.5425 14.6923 65.4098 14.845L65.3998 14.848ZM83.2218 14.089V10.392C83.2218 9.36332 82.9375 8.64865 82.3688 8.24799C82.0738 8.04199 81.6508 7.93999 81.2928 7.93999C80.8495 7.93999 80.4225 8.06999 80.0118 8.32999C79.7385 8.49799 79.3591 8.80932 78.8738 9.26399V8.10099C78.8748 8.06323 78.8704 8.02552 78.8608 7.98899C78.8528 7.96299 78.8308 7.95032 78.7948 7.95099L77.9548 8.19499L76.3478 8.67899V8.98399C76.4268 8.96899 76.5538 8.94399 76.6048 8.93599C76.6561 8.93065 76.7045 8.92799 76.7498 8.92799C77.0598 8.92799 77.2661 9.02732 77.3688 9.22599C77.4321 9.36265 77.4635 9.59865 77.4628 9.93399V13.954C77.4628 14.4407 77.3875 14.753 77.2368 14.891C77.0861 15.031 76.8238 15.1243 76.4498 15.171V15.393H80.0038V15.171C79.6398 15.1603 79.3731 15.0907 79.2038 14.962C79.0338 14.832 78.9491 14.5777 78.9498 14.199V9.76899C79.2331 9.48832 79.4641 9.28799 79.6428 9.16799C79.9628 8.95665 80.2775 8.85132 80.5868 8.85199C81.0375 8.85199 81.3475 9.00132 81.5168 9.29999C81.6848 9.59865 81.7688 9.97465 81.7688 10.428V13.806C81.7688 14.346 81.6921 14.696 81.5388 14.856C81.3861 15.016 81.1171 15.1227 80.7318 15.176V15.398H84.2078V15.176C83.8511 15.1713 83.5971 15.084 83.4458 14.914C83.2945 14.7453 83.2191 14.4713 83.2198 14.092L83.2218 14.089ZM74.8348 8.99899C74.1498 8.31499 73.1868 7.97099 72.1408 7.97099C71.0948 7.97099 70.1338 8.33199 69.4668 9.05799C68.8001 9.78332 68.4668 10.671 68.4668 11.721C68.4668 12.845 68.8171 13.7787 69.5178 14.522C70.2208 15.265 71.1728 15.637 72.1868 15.637C73.1998 15.637 74.1978 15.25 74.8628 14.474C75.5275 13.6973 75.8601 12.785 75.8608 11.737C75.8608 10.5963 75.5178 9.68399 74.8318 8.99999L74.8348 8.99899ZM73.8818 14.329C73.5765 14.881 73.1285 15.1643 72.5378 15.179C71.7825 15.199 71.1808 14.8087 70.7328 14.008C70.2864 13.2091 70.0427 12.3129 70.0228 11.398C69.9895 10.222 70.2311 9.38699 70.7478 8.89299C71.0458 8.60965 71.4041 8.46299 71.8228 8.45299C72.5941 8.43232 73.1941 8.81899 73.6228 9.61299C74.0528 10.4097 74.2795 11.2633 74.3028 12.174C74.3255 13.0547 74.1845 13.7713 73.8798 14.324L73.8818 14.329ZM56.8918 7.91699C56.3918 7.91699 55.9038 8.06465 55.4278 8.35999C55.1638 8.52932 54.8575 8.78732 54.5088 9.13399V8.06899C54.5083 8.03986 54.5015 8.0112 54.4888 7.98499C54.4828 7.9741 54.4739 7.96503 54.4632 7.9587C54.4525 7.95237 54.4403 7.94902 54.4278 7.94899C53.3938 8.30799 52.7678 8.48899 52.7398 8.49599L51.8708 8.77899V9.04099C51.9658 9.02099 52.1008 8.98799 52.2048 8.96999C52.2555 8.96332 52.3098 8.96065 52.3678 8.96199C52.6378 8.96199 52.8211 9.01865 52.9178 9.13199C53.0158 9.24532 53.0651 9.50265 53.0658 9.90399V17.502C53.0658 17.886 52.9985 18.1687 52.8638 18.35C52.7318 18.528 52.4158 18.635 51.9248 18.665V18.928H55.9298V18.65C55.3445 18.608 54.9645 18.5267 54.7898 18.406C54.6151 18.284 54.5275 17.9573 54.5268 17.426V14.829C54.8115 15.125 55.1228 15.328 55.4608 15.438C55.6761 15.5113 55.9328 15.5477 56.2308 15.547C57.1848 15.547 58.1318 15.117 58.7638 14.259C59.3958 13.401 59.6518 12.443 59.6518 11.389C59.6518 10.335 59.3898 9.46699 58.8658 8.84899C58.6245 8.5589 58.3225 8.32528 57.9811 8.1646C57.6396 8.00391 57.2671 7.92007 56.8898 7.91899L56.8918 7.91699ZM57.5668 14.15C57.1621 14.7167 56.6758 15 56.1078 15C55.7385 15 55.4178 14.912 55.1458 14.736C54.8738 14.56 54.6691 14.2927 54.5318 13.934V9.95899C54.5311 9.72699 54.6925 9.49132 55.0158 9.25199C55.3358 9.01199 55.6925 8.89199 56.0858 8.89199C56.6391 8.89199 57.1251 9.13165 57.5438 9.61099C57.9638 10.091 58.1738 10.8157 58.1738 11.785C58.1738 12.755 57.9718 13.585 57.5668 14.153V14.15Z" fill="black"/>
<path d="M6.54781 20.148C10.0398 20.126 11.8878 18.452 11.8878 18.452L11.8078 18.533C13.5128 17.036 14.2338 15.085 13.4138 14.036C12.9208 13.404 11.9768 13.225 10.8958 13.462H10.8878C10.8878 13.462 8.91781 14.06 8.09881 13.215C7.54281 12.642 7.50581 11.593 7.81181 10.441H7.79981L7.88081 10.201C8.13776 9.38171 8.50694 8.60197 8.97781 7.88398C10.3473 5.72007 12.1295 3.84709 14.2228 2.37198C12.0858 1.61034 9.76146 1.55113 7.58848 2.20299C5.4155 2.85484 3.50751 4.18369 2.14263 5.99583C0.77775 7.80797 0.0273221 10.0087 0.000731824 12.2772C-0.0258585 14.5457 0.672778 16.7633 1.99481 18.607C3.30066 19.6092 4.90168 20.1518 6.54781 20.148Z" fill="url(#paint0_linear_8_25)"/>
<path d="M18.5998 5.323C17.8237 5.18755 17.0275 5.22134 16.2657 5.42207C15.5039 5.62279 14.7944 5.98571 14.1858 6.486C14.0891 6.56133 13.9945 6.63766 13.9018 6.715C10.1018 10.128 12.1368 11.565 13.1088 11.699C13.477 11.7326 13.8338 11.8443 14.1554 12.0268C14.477 12.2092 14.756 12.4582 14.9738 12.757C16.0678 14.162 15.0438 16.787 12.6888 18.619C12.1653 19.0286 11.5966 19.3769 10.9938 19.657C8.7508 20.749 5.6478 20.657 3.6758 20.444C5.71987 22.2121 8.35991 23.1366 11.0605 23.03C13.7611 22.9234 16.32 21.7937 18.2183 19.8699C20.1167 17.9461 21.2122 15.3724 21.2829 12.6706C21.3536 9.96885 20.394 7.34135 18.5988 5.321L18.5998 5.323Z" fill="url(#paint1_linear_8_25)"/>
<path d="M6.5478 20.148C10.0398 20.126 11.8888 18.452 11.8888 18.452L11.8088 18.533C13.5138 17.036 14.2348 15.085 13.4138 14.036C12.9208 13.404 11.9768 13.225 10.8958 13.462H10.8878C10.8878 13.462 8.9178 14.06 8.0988 13.215C7.5428 12.642 7.5058 11.593 7.8128 10.441H7.7998L7.8798 10.201C8.13675 9.38171 8.50593 8.60197 8.9768 7.88398C10.2387 5.8793 11.8607 4.12544 13.7608 2.71098C11.6109 2.0211 9.29262 2.06568 7.17083 2.83771C5.04904 3.60974 3.24419 5.06538 2.04034 6.97556C0.836486 8.88574 0.301975 11.142 0.520927 13.3892C0.739879 15.6365 1.69986 17.7471 3.2498 19.389C4.2785 19.8864 5.40613 20.1455 6.5488 20.147" fill="url(#paint2_linear_8_25)"/>
<path d="M17.8798 5.243C16.539 5.19619 15.2268 5.6375 14.1868 6.485C14.0906 6.55988 13.9956 6.63622 13.9018 6.714C10.1018 10.127 12.1378 11.564 13.1088 11.699C13.4772 11.7325 13.8342 11.8441 14.156 12.0266C14.4778 12.209 14.7569 12.4581 14.9748 12.757C16.0678 14.162 15.0448 16.787 12.6888 18.618C12.1656 19.0275 11.5973 19.3758 10.9948 19.656C9.0488 20.604 6.4558 20.661 4.5148 20.52C6.56753 22.0719 9.13201 22.7885 11.6919 22.5254C14.2517 22.2623 16.6169 21.0392 18.3111 19.1022C20.0053 17.1653 20.9027 14.6584 20.8227 12.0863C20.7427 9.51416 19.6911 7.06789 17.8798 5.24V5.243Z" fill="url(#paint3_linear_8_25)"/>
<path d="M20.6888 1.773C20.6888 2.24323 20.502 2.6942 20.1695 3.0267C19.837 3.3592 19.386 3.546 18.9158 3.546C18.4456 3.546 17.9946 3.3592 17.6621 3.0267C17.3296 2.6942 17.1428 2.24323 17.1428 1.773C17.1428 1.30277 17.3296 0.851802 17.6621 0.5193C17.9946 0.186798 18.4456 0 18.9158 0C19.386 0 19.837 0.186798 20.1695 0.5193C20.502 0.851802 20.6888 1.30277 20.6888 1.773Z" fill="url(#paint4_linear_8_25)"/>
<path d="M20.6178 1.77599C20.6177 1.99858 20.5737 2.21896 20.4884 2.42456C20.4031 2.63016 20.2781 2.81694 20.1206 2.97424C19.9631 3.13154 19.7762 3.25628 19.5705 3.34135C19.3648 3.42641 19.1444 3.47012 18.9218 3.46999C18.6992 3.46986 18.4788 3.42588 18.2732 3.34058C18.0676 3.25528 17.8808 3.13031 17.7235 2.97283C17.5662 2.81534 17.4415 2.62841 17.3564 2.42271C17.2714 2.21701 17.2277 1.99658 17.2278 1.77399C17.2281 1.32444 17.4069 0.89342 17.725 0.575734C18.043 0.258047 18.4743 0.0797217 18.9238 0.0799869C19.3733 0.0802521 19.8044 0.259086 20.1221 0.577148C20.4397 0.89521 20.6181 1.32644 20.6178 1.77599Z" fill="url(#paint5_linear_8_25)"/>
<path d="M20.2028 1.82901C20.2529 1.96403 20.2759 2.1076 20.2704 2.25151C20.2649 2.39542 20.2311 2.53683 20.1709 2.66765C20.1107 2.79848 20.0253 2.91614 19.9195 3.01391C19.8138 3.11168 19.6898 3.18762 19.5547 3.2374C19.4195 3.28718 19.2759 3.30982 19.132 3.30401C18.9881 3.2982 18.8468 3.26407 18.7161 3.20356C18.5854 3.14305 18.468 3.05736 18.3704 2.95139C18.2729 2.84542 18.1973 2.72126 18.1478 2.58601C18.0482 2.31368 18.0607 2.01296 18.1825 1.74983C18.3044 1.48669 18.5256 1.28263 18.7977 1.1824C19.0698 1.08216 19.3705 1.09395 19.6339 1.21517C19.8974 1.33639 20.1019 1.55714 20.2028 1.82901Z" fill="url(#paint6_linear_8_25)"/>
<path d="M20.2598 1.51298C20.2598 1.68849 20.2252 1.86229 20.1581 2.02444C20.0909 2.18659 19.9925 2.33393 19.8683 2.45803C19.7442 2.58214 19.5969 2.68058 19.4348 2.74775C19.2726 2.81491 19.0988 2.84948 18.9233 2.84948C18.7478 2.84948 18.574 2.81491 18.4118 2.74775C18.2497 2.68058 18.1024 2.58214 17.9783 2.45803C17.8541 2.33393 17.7557 2.18659 17.6885 2.02444C17.6214 1.86229 17.5868 1.68849 17.5868 1.51298C17.5868 1.15852 17.7276 0.818577 17.9783 0.567935C18.2289 0.317293 18.5688 0.176483 18.9233 0.176483C19.2778 0.176483 19.6177 0.317293 19.8683 0.567935C20.119 0.818577 20.2598 1.15852 20.2598 1.51298Z" fill="url(#paint7_linear_8_25)"/>
<path d="M18.9198 0.0780047C18.682 0.0779689 18.4468 0.127914 18.2296 0.224601C18.0123 0.321288 17.8178 0.462558 17.6586 0.639251C17.4995 0.815945 17.3792 1.02412 17.3057 1.25027C17.2322 1.47642 17.207 1.7155 17.2318 1.952C18.3274 2.32022 19.5132 2.32022 20.6088 1.952C20.6339 1.71544 20.609 1.47623 20.5356 1.24994C20.4621 1.02365 20.3419 0.815351 20.1827 0.638588C20.0235 0.461825 19.8288 0.320557 19.6114 0.223975C19.394 0.127392 19.1577 0.0776569 18.9198 0.0780047Z" fill="url(#paint8_linear_8_25)"/>
<path d="M18.9198 0.175997C18.6932 0.175555 18.4702 0.232848 18.2719 0.342471C18.0735 0.452094 17.9064 0.610433 17.7862 0.802553C17.6661 0.994673 17.5968 1.21424 17.585 1.44054C17.5732 1.66684 17.6193 1.89242 17.7188 2.096C18.5097 2.27297 19.3299 2.27297 20.1208 2.096C20.2203 1.8925 20.2664 1.66701 20.2546 1.44079C20.2429 1.21457 20.1737 0.995071 20.0536 0.802978C19.9336 0.610885 19.7666 0.452529 19.5684 0.342835C19.3702 0.233142 19.1463 0.175725 18.9198 0.175997Z" fill="url(#paint9_linear_8_25)"/>
<path d="M7.9858 20.039C9.4076 19.8773 10.7575 19.3275 11.8878 18.45L11.8078 18.532C13.0878 17.408 13.8118 16.029 13.7478 14.966C12.6758 15.067 11.5678 15.122 10.4348 15.122C8.83099 15.1249 7.22899 15.0142 5.6408 14.791C5.60988 15.7861 5.80481 16.7752 6.21096 17.6841C6.6171 18.5931 7.22391 19.3982 7.9858 20.039Z" fill="url(#paint10_linear_8_25)"/>
<path d="M15.3478 14.776C14.9323 16.3261 13.9931 17.6847 12.6898 18.621C12.1663 19.0306 11.5976 19.3789 10.9948 19.659C10.1948 20.031 9.3428 20.284 8.4688 20.407C9.51884 21.1342 10.758 21.5397 12.0349 21.5738C13.3117 21.608 14.5708 21.2693 15.6582 20.5993C16.7456 19.9292 17.6142 18.9568 18.1578 17.8009C18.7013 16.6451 18.8963 15.3559 18.7188 14.091C17.6081 14.385 16.4845 14.6133 15.3478 14.776Z" fill="url(#paint11_linear_8_25)"/>
<path d="M10.4348 15.123C11.5668 15.123 12.6748 15.069 13.7468 14.967C13.7333 14.6289 13.6167 14.303 13.4128 14.033C12.9198 13.401 11.9758 13.222 10.8948 13.459H10.8868C10.8868 13.459 8.9168 14.056 8.0978 13.212C7.5418 12.639 7.5048 11.59 7.8118 10.438H7.7988L7.8798 10.198C8.13675 9.37872 8.50592 8.59898 8.9768 7.88099C10.2387 5.87631 11.8607 4.12245 13.7608 2.70799C12.1373 2.18769 10.4092 2.08327 8.73493 2.40431C7.06063 2.72534 5.49371 3.46155 4.17784 4.54544C2.86196 5.62933 1.83924 7.02621 1.20344 8.60802C0.567641 10.1898 0.339108 11.9059 0.538796 13.599C3.73303 14.6402 7.07529 15.1553 10.4348 15.124" fill="url(#paint12_linear_8_25)"/>
<path d="M17.8798 5.243C16.5387 5.19594 15.2261 5.63727 14.1858 6.485C14.0891 6.561 13.9941 6.63734 13.9008 6.714C10.1008 10.127 12.1358 11.564 13.1078 11.699C13.4762 11.7325 13.8332 11.8441 14.155 12.0266C14.4768 12.209 14.7559 12.4581 14.9738 12.757C15.1791 13.0465 15.3187 13.3774 15.3829 13.7264C15.4472 14.0755 15.4345 14.4344 15.3458 14.778C17.1947 14.522 19.0121 14.0749 20.7688 13.444C20.8028 13.0973 20.8195 12.75 20.8188 12.402C20.8241 9.72048 19.767 7.14604 17.8788 5.242" fill="url(#paint13_linear_8_25)"/>
<path d="M6.8188 17.961C7.83706 18.3072 8.92024 18.4195 9.98788 18.2897C11.0555 18.1598 12.0802 17.7912 12.9858 17.211C13.7938 16.023 14.0048 14.793 13.4128 14.033C12.9198 13.4 11.9758 13.224 10.8948 13.459H10.8878C10.8878 13.459 8.9168 14.056 8.0978 13.212C7.5428 12.639 7.5048 11.59 7.8118 10.438H7.7998L7.8798 10.198C8.13707 9.37867 8.50658 8.59893 8.9778 7.881C9.73935 6.63805 10.6549 5.49634 11.7028 4.483L11.4268 4.382C9.63514 3.8042 7.68813 3.95422 6.00613 4.79965C4.32413 5.64508 3.0421 7.11809 2.43684 8.90065C1.83158 10.6832 1.95165 12.6323 2.77113 14.3271C3.59061 16.0219 5.04375 17.3264 6.8168 17.959L6.8188 17.961Z" fill="url(#paint14_linear_8_25)"/>
<path d="M14.1868 6.485C14.0895 6.561 13.9945 6.63733 13.9018 6.714C10.1018 10.127 12.1368 11.564 13.1088 11.699C13.477 11.7326 13.8338 11.8443 14.1554 12.0268C14.4771 12.2092 14.756 12.4582 14.9738 12.757C15.1744 13.0364 15.3126 13.3557 15.379 13.6931C15.4454 14.0306 15.4385 14.3784 15.3588 14.713C16.1064 13.393 16.4166 11.8701 16.2451 10.3628C16.0735 8.85548 15.4289 7.44126 14.4038 6.323C14.3304 6.37559 14.2581 6.4296 14.1868 6.485Z" fill="url(#paint15_linear_8_25)"/>
<path d="M10.6468 18.846C10.9001 18.846 11.1505 18.8343 11.3978 18.811C11.5705 18.703 11.7338 18.583 11.8878 18.451L11.8078 18.532C13.5128 17.036 14.2338 15.085 13.4128 14.035C12.9208 13.403 11.9768 13.227 10.8948 13.462H10.8878C10.8878 13.462 8.91781 14.059 8.09781 13.215C7.54281 12.642 7.50481 11.593 7.81181 10.441H7.79981L7.87981 10.201C8.13708 9.38166 8.50659 8.60192 8.97781 7.88399C10.0922 6.09881 11.5 4.51455 13.1418 3.19799C12.0388 2.837 10.8706 2.7196 9.71778 2.85387C8.56498 2.98814 7.45503 3.37088 6.46449 3.97571C5.47395 4.58053 4.62641 5.39304 3.98033 6.35717C3.33425 7.3213 2.90501 8.41412 2.72222 9.56022C2.53942 10.7063 2.60744 11.8784 2.92156 12.9957C3.23567 14.113 3.78843 15.1488 4.54168 16.0318C5.29494 16.9147 6.23076 17.6237 7.2846 18.1099C8.33844 18.5961 9.48521 18.848 10.6458 18.848L10.6468 18.846Z" fill="url(#paint16_linear_8_25)"/>
<path d="M14.1868 6.48499C14.0895 6.56099 13.9945 6.63733 13.9018 6.71399C10.1018 10.127 12.1368 11.564 13.1088 11.699C13.477 11.7326 13.8338 11.8443 14.1554 12.0268C14.4771 12.2092 14.756 12.4582 14.9738 12.757C16.0568 14.147 15.0648 16.734 12.7598 18.565C14.0911 18.2007 15.3059 17.4993 16.287 16.5284C17.2681 15.5576 17.9822 14.3502 18.3604 13.0228C18.7386 11.6954 18.7681 10.2929 18.446 8.95073C18.1239 7.6086 17.4612 6.37221 16.5218 5.36099C15.6687 5.55476 14.8704 5.93902 14.1868 6.48499Z" fill="url(#paint17_linear_8_25)"/>
<path d="M10.4348 15.123C11.5678 15.123 12.6748 15.069 13.7468 14.967C13.7333 14.6289 13.6167 14.303 13.4128 14.033C12.9198 13.401 11.9758 13.225 10.8948 13.46H10.8868C10.8868 13.46 8.91681 14.057 8.09781 13.212C7.54181 12.64 7.50481 11.591 7.81181 10.438H7.79981L7.87981 10.198C8.13685 9.37907 8.50602 8.59967 8.97681 7.882C10.0915 6.09674 11.4997 4.51248 13.1418 3.19599C11.6376 2.70489 10.0217 2.66934 8.49736 3.09381C6.97298 3.51827 5.60806 4.38382 4.57412 5.58168C3.54017 6.77954 2.88334 8.25627 2.68614 9.82631C2.48895 11.3964 2.7602 12.9897 3.46581 14.406C5.75702 14.8901 8.09302 15.1304 10.4348 15.123Z" fill="url(#paint18_linear_8_25)"/>
<path d="M14.1868 6.485C14.0895 6.561 13.9945 6.63733 13.9018 6.714C10.1018 10.127 12.1368 11.564 13.1088 11.699C13.477 11.7326 13.8338 11.8443 14.1554 12.0268C14.4771 12.2092 14.756 12.4582 14.9738 12.757C15.1791 13.0463 15.3188 13.377 15.3832 13.7258C15.4476 14.0747 15.4352 14.4334 15.3468 14.777C16.2221 14.6503 17.0658 14.492 17.8778 14.302C18.5756 12.8479 18.8193 11.2174 18.5773 9.62284C18.3352 8.02826 17.6186 6.54353 16.5208 5.362C15.6681 5.55561 14.8702 5.93951 14.1868 6.485Z" fill="url(#paint19_linear_8_25)"/>
<path opacity="0.5" d="M10.5358 25.315C14.6598 25.315 18.0038 24.863 18.0038 24.305C18.0038 23.748 14.6598 23.296 10.5358 23.296C6.4118 23.296 3.06779 23.748 3.06779 24.306C3.06779 24.863 6.4118 25.315 10.5358 25.315Z" fill="url(#paint20_radial_8_25)"/>
<path d="M101.212 11.039V11.891H104.788V11.039H101.212ZM99.8798 9.99499H106.192V12.947H99.8798V9.99499ZM102.148 12.503L103.78 12.599C103.66 12.919 103.532 13.227 103.396 13.523C103.26 13.819 103.136 14.071 103.024 14.279L101.764 14.111C101.844 13.863 101.92 13.591 101.992 13.295C102.064 12.999 102.116 12.735 102.148 12.503ZM98.8718 13.679H107.32V17.591H105.892V14.915H100.252V17.603H98.8718V13.679ZM99.6518 15.971H106.504V17.207H99.6518V15.971ZM97.9478 8.18299H108.184V10.739H106.804V9.39499H99.2678V10.739H97.9478V8.18299ZM106 6.35899L107.548 6.82699C107.292 7.17099 107.036 7.50699 106.78 7.83499C106.524 8.16299 106.288 8.43899 106.072 8.66299L104.896 8.23099C105.024 8.05499 105.156 7.85899 105.292 7.64299C105.436 7.42699 105.568 7.20699 105.688 6.98299C105.816 6.75899 105.92 6.55099 106 6.35899ZM98.6198 6.99499L99.8558 6.46699C100.064 6.69899 100.268 6.95899 100.468 7.24699C100.676 7.52699 100.832 7.77899 100.936 8.00299L99.6158 8.57899C99.5278 8.36299 99.3878 8.10699 99.1958 7.81099C99.0038 7.50699 98.8118 7.23499 98.6198 6.99499ZM101.62 6.69499L102.88 6.26299C103.056 6.50299 103.232 6.77499 103.408 7.07899C103.592 7.38299 103.72 7.64699 103.792 7.87099L102.472 8.35099C102.4 8.13499 102.28 7.87099 102.112 7.55899C101.952 7.23899 101.788 6.95099 101.62 6.69499ZM109.672 13.643H120.376V14.831H109.672V13.643ZM109.708 8.26699H120.34V9.44299H109.708V8.26699ZM110.2 10.415H119.872V11.543H110.2V10.415ZM110.788 12.071H119.32V13.115H110.788V12.071ZM114.268 10.979H115.696V17.579H114.268V10.979ZM113.224 6.28699H114.568V8.83099H113.224V6.28699ZM115.456 6.28699H116.812V8.74699H115.456V6.28699ZM114.004 14.171L115.144 14.687C114.768 15.103 114.312 15.491 113.776 15.851C113.248 16.203 112.68 16.511 112.072 16.775C111.464 17.047 110.852 17.267 110.236 17.435C110.172 17.315 110.084 17.179 109.972 17.027C109.868 16.883 109.756 16.739 109.636 16.595C109.524 16.451 109.416 16.331 109.312 16.235C109.912 16.107 110.508 15.943 111.1 15.743C111.7 15.543 112.252 15.307 112.756 15.035C113.26 14.763 113.676 14.475 114.004 14.171ZM115.984 14.135C116.232 14.375 116.528 14.603 116.872 14.819C117.216 15.027 117.592 15.219 118 15.395C118.416 15.563 118.852 15.711 119.308 15.839C119.772 15.967 120.24 16.067 120.712 16.139C120.6 16.251 120.48 16.379 120.352 16.523C120.232 16.675 120.116 16.831 120.004 16.991C119.9 17.159 119.812 17.311 119.74 17.447C119.26 17.327 118.788 17.171 118.324 16.979C117.868 16.795 117.432 16.583 117.016 16.343C116.6 16.103 116.208 15.835 115.84 15.539C115.472 15.243 115.148 14.927 114.868 14.591L115.984 14.135ZM118.216 6.39499L119.716 6.75499C119.532 7.08299 119.344 7.40299 119.152 7.71499C118.96 8.01899 118.784 8.27899 118.624 8.49499L117.448 8.13499C117.544 7.97499 117.64 7.79499 117.736 7.59499C117.832 7.38699 117.92 7.17899 118 6.97099C118.088 6.75499 118.16 6.56299 118.216 6.39499ZM116.632 8.96299L118.156 9.32299C117.988 9.60299 117.828 9.87499 117.676 10.139C117.524 10.395 117.388 10.615 117.268 10.799L116.044 10.463C116.148 10.239 116.256 9.99099 116.368 9.71899C116.48 9.43899 116.568 9.18699 116.632 8.96299ZM110.56 6.77899L111.796 6.35899C111.972 6.60699 112.148 6.89499 112.324 7.22299C112.5 7.54299 112.628 7.81899 112.708 8.05099L111.412 8.53099C111.348 8.29099 111.232 8.00699 111.064 7.67899C110.896 7.35099 110.728 7.05099 110.56 6.77899ZM112.084 9.46699L113.488 9.23899C113.592 9.40699 113.692 9.59899 113.788 9.81499C113.892 10.023 113.968 10.207 114.016 10.367L112.552 10.619C112.512 10.467 112.448 10.279 112.36 10.055C112.272 9.83099 112.18 9.63499 112.084 9.46699ZM126.472 6.89899H132.4V8.24299H126.472V6.89899ZM126.16 11.207H132.64V12.563H126.16V11.207ZM130.012 7.48699H131.38V17.579H130.012V7.48699ZM127.312 7.52299H128.656V11.591C128.656 12.087 128.636 12.611 128.596 13.163C128.556 13.707 128.476 14.251 128.356 14.795C128.244 15.331 128.076 15.847 127.852 16.343C127.636 16.839 127.34 17.279 126.964 17.663C126.884 17.575 126.78 17.479 126.652 17.375C126.524 17.271 126.388 17.167 126.244 17.063C126.108 16.967 125.988 16.891 125.884 16.835C126.204 16.483 126.456 16.091 126.64 15.659C126.832 15.227 126.976 14.775 127.072 14.303C127.168 13.823 127.232 13.351 127.264 12.887C127.296 12.423 127.312 11.987 127.312 11.579V7.52299ZM121.516 6.87499H125.896V8.17099H121.516V6.87499ZM122.872 10.571H125.752V16.115H122.872V14.855H124.528V11.843H122.872V10.571ZM122.92 7.51099L124.216 7.79899C124.072 8.55899 123.888 9.31499 123.664 10.067C123.44 10.819 123.172 11.523 122.86 12.179C122.548 12.835 122.184 13.411 121.768 13.907C121.752 13.779 121.716 13.607 121.66 13.391C121.604 13.175 121.54 12.959 121.468 12.743C121.396 12.519 121.328 12.339 121.264 12.203C121.688 11.635 122.032 10.939 122.296 10.115C122.56 9.29099 122.768 8.42299 122.92 7.51099ZM122.248 10.571H123.436V17.003H122.248V10.571ZM141.304 11.843L142.348 12.275C142.1 12.523 141.808 12.755 141.472 12.971C141.136 13.187 140.78 13.375 140.404 13.535C140.036 13.695 139.664 13.839 139.288 13.967C139.2 13.831 139.084 13.687 138.94 13.535C138.796 13.383 138.656 13.251 138.52 13.139C138.864 13.051 139.208 12.943 139.552 12.815C139.904 12.679 140.232 12.531 140.536 12.371C140.848 12.203 141.104 12.027 141.304 11.843ZM142.468 12.935L143.512 13.367C143.192 13.711 142.808 14.023 142.36 14.303C141.92 14.575 141.436 14.815 140.908 15.023C140.388 15.231 139.852 15.407 139.3 15.551C139.22 15.415 139.116 15.259 138.988 15.083C138.86 14.907 138.732 14.759 138.604 14.639C139.108 14.535 139.604 14.403 140.092 14.243C140.588 14.083 141.044 13.891 141.46 13.667C141.876 13.443 142.212 13.199 142.468 12.935ZM143.344 14.303L144.58 14.807C144.164 15.295 143.656 15.715 143.056 16.067C142.456 16.411 141.788 16.703 141.052 16.943C140.324 17.183 139.548 17.379 138.724 17.531C138.652 17.355 138.548 17.159 138.412 16.943C138.276 16.727 138.136 16.543 137.992 16.391C138.736 16.287 139.452 16.147 140.14 15.971C140.828 15.787 141.448 15.559 142 15.287C142.552 15.007 143 14.679 143.344 14.303ZM139.66 6.28699L140.968 6.61099C140.704 7.32299 140.356 8.00299 139.924 8.65099C139.5 9.29099 139.048 9.82699 138.568 10.259C138.496 10.179 138.392 10.087 138.256 9.98299C138.128 9.87099 137.996 9.76699 137.86 9.67099C137.724 9.56699 137.604 9.48299 137.5 9.41899C137.964 9.05099 138.384 8.59099 138.76 8.03899C139.144 7.48699 139.444 6.90299 139.66 6.28699ZM139.648 7.52299H144.496V8.66299H138.964L139.648 7.52299ZM142.504 7.81099L143.848 8.09899C143.536 8.87499 143.116 9.54299 142.588 10.103C142.06 10.663 141.448 11.139 140.752 11.531C140.064 11.923 139.312 12.243 138.496 12.491C138.44 12.395 138.36 12.279 138.256 12.143C138.16 12.007 138.056 11.871 137.944 11.735C137.832 11.591 137.732 11.479 137.644 11.399C138.436 11.215 139.152 10.967 139.792 10.655C140.44 10.335 140.996 9.94299 141.46 9.47899C141.924 9.00699 142.272 8.45099 142.504 7.81099ZM139.648 8.18299C139.896 8.62299 140.26 9.05099 140.74 9.46699C141.22 9.88299 141.804 10.251 142.492 10.571C143.188 10.883 143.984 11.111 144.88 11.255C144.792 11.343 144.7 11.455 144.604 11.591C144.508 11.727 144.412 11.867 144.316 12.011C144.228 12.155 144.156 12.287 144.1 12.407C143.196 12.199 142.392 11.907 141.688 11.531C140.992 11.147 140.396 10.715 139.9 10.235C139.412 9.74699 139.028 9.24699 138.748 8.73499L139.648 8.18299ZM136.6 7.84699H137.848V15.563H136.6V7.84699ZM135.508 6.34699L136.828 6.73099C136.604 7.43499 136.332 8.14299 136.012 8.85499C135.7 9.56699 135.356 10.243 134.98 10.883C134.612 11.515 134.224 12.071 133.816 12.551C133.784 12.431 133.724 12.275 133.636 12.083C133.556 11.883 133.468 11.683 133.372 11.483C133.284 11.275 133.2 11.111 133.12 10.991C133.448 10.607 133.76 10.167 134.056 9.67099C134.352 9.17499 134.624 8.64299 134.872 8.07499C135.12 7.50699 135.332 6.93099 135.508 6.34699ZM134.572 9.62299L135.892 8.29099L135.94 8.31499V17.567H134.572V9.62299Z" fill="black" fill-opacity="0.86"/>
<defs>
<linearGradient id="paint0_linear_8_25" x1="-0.185191" y1="10.951" x2="21.6338" y2="10.951" gradientUnits="userSpaceOnUse">
<stop stop-color="#003288"/>
<stop offset="1" stop-color="#000548"/>
</linearGradient>
<linearGradient id="paint1_linear_8_25" x1="-0.199203" y1="14.142" x2="21.6248" y2="14.142" gradientUnits="userSpaceOnUse">
<stop stop-color="#003288"/>
<stop offset="1" stop-color="#000548"/>
</linearGradient>
<linearGradient id="paint2_linear_8_25" x1="12.3928" y1="23.912" x2="1.9208" y2="6.99898" gradientUnits="userSpaceOnUse">
<stop stop-color="#007CC6"/>
<stop offset="0.396" stop-color="#003288"/>
<stop offset="1" stop-color="#001952"/>
</linearGradient>
<linearGradient id="paint3_linear_8_25" x1="15.1648" y1="22.974" x2="7.8478" y2="3.93" gradientUnits="userSpaceOnUse">
<stop stop-color="#007CC6"/>
<stop offset="0.396" stop-color="#003288"/>
<stop offset="1" stop-color="#001952"/>
</linearGradient>
<linearGradient id="paint4_linear_8_25" x1="17.1418" y1="1.773" x2="20.6888" y2="1.773" gradientUnits="userSpaceOnUse">
<stop stop-color="#E85400"/>
<stop offset="1" stop-color="#AD3F00"/>
</linearGradient>
<linearGradient id="paint5_linear_8_25" x1="19.3778" y1="3.28699" x2="18.4758" y2="0.286987" gradientUnits="userSpaceOnUse">
<stop stop-color="#FFC400"/>
<stop offset="0.396" stop-color="#E85400"/>
<stop offset="1" stop-color="#AD3F00"/>
</linearGradient>
<linearGradient id="paint6_linear_8_25" x1="19.8538" y1="2.98501" x2="18.7088" y2="1.67101" gradientUnits="userSpaceOnUse">
<stop stop-color="#FFE7C7"/>
<stop offset="0.033" stop-color="#FFD99F"/>
<stop offset="0.093" stop-color="#FFC400"/>
<stop offset="0.956" stop-color="#E85400"/>
</linearGradient>
<linearGradient id="paint7_linear_8_25" x1="18.9228" y1="0.167983" x2="18.9228" y2="3.33798" gradientUnits="userSpaceOnUse">
<stop stop-color="white"/>
<stop offset="0.396" stop-color="#E85400"/>
<stop offset="1" stop-color="#FFC400"/>
</linearGradient>
<linearGradient id="paint8_linear_8_25" x1="18.9208" y1="0.179005" x2="18.9208" y2="4.14401" gradientUnits="userSpaceOnUse">
<stop stop-color="#C24600"/>
<stop offset="0.187" stop-color="#E85400"/>
<stop offset="1" stop-color="#FFC400"/>
</linearGradient>
<linearGradient id="paint9_linear_8_25" x1="18.9198" y1="0.251997" x2="18.9198" y2="2.203" gradientUnits="userSpaceOnUse">
<stop stop-color="white"/>
<stop offset="0.396" stop-color="#E85400"/>
<stop offset="1" stop-color="#FFC400"/>
</linearGradient>
<linearGradient id="paint10_linear_8_25" x1="14.7088" y1="21.362" x2="11.7378" y2="14.265" gradientUnits="userSpaceOnUse">
<stop stop-color="#98C5EA"/>
<stop offset="0.033" stop-color="#489BD7"/>
<stop offset="0.093" stop-color="#007CC6"/>
<stop offset="0.956" stop-color="#003288"/>
</linearGradient>
<linearGradient id="paint11_linear_8_25" x1="16.2038" y1="19.862" x2="12.5028" y2="12.839" gradientUnits="userSpaceOnUse">
<stop stop-color="#98C5EA"/>
<stop offset="0.033" stop-color="#489BD7"/>
<stop offset="0.093" stop-color="#007CC6"/>
<stop offset="0.956" stop-color="#003288"/>
</linearGradient>
<linearGradient id="paint12_linear_8_25" x1="7.1148" y1="2.48099" x2="7.1148" y2="43.146" gradientUnits="userSpaceOnUse">
<stop stop-color="#001952"/>
<stop offset="0.187" stop-color="#003288"/>
<stop offset="1" stop-color="#2583C8"/>
</linearGradient>
<linearGradient id="paint13_linear_8_25" x1="16.2528" y1="2.483" x2="16.2528" y2="43.146" gradientUnits="userSpaceOnUse">
<stop stop-color="#001952"/>
<stop offset="0.187" stop-color="#003288"/>
<stop offset="1" stop-color="#2583C8"/>
</linearGradient>
<linearGradient id="paint14_linear_8_25" x1="2.3318" y1="11.179" x2="15.8448" y2="11.179" gradientUnits="userSpaceOnUse">
<stop stop-color="#98C5EA"/>
<stop offset="0.033" stop-color="#489BD7"/>
<stop offset="0.093" stop-color="#007CC6"/>
<stop offset="0.956" stop-color="#003288"/>
</linearGradient>
<linearGradient id="paint15_linear_8_25" x1="2.5808" y1="10.518" x2="11.5028" y2="10.518" gradientUnits="userSpaceOnUse">
<stop stop-color="#98C5EA"/>
<stop offset="0.033" stop-color="#489BD7"/>
<stop offset="0.093" stop-color="#007CC6"/>
<stop offset="0.956" stop-color="#003288"/>
</linearGradient>
<linearGradient id="paint16_linear_8_25" x1="8.18681" y1="10.359" x2="8.18681" y2="19.924" gradientUnits="userSpaceOnUse">
<stop stop-color="white"/>
<stop offset="0.396" stop-color="#003288"/>
<stop offset="1" stop-color="#007CC6"/>
</linearGradient>
<linearGradient id="paint17_linear_8_25" x1="15.1778" y1="10.352" x2="15.1778" y2="19.925" gradientUnits="userSpaceOnUse">
<stop stop-color="white"/>
<stop offset="0.396" stop-color="#003288"/>
<stop offset="1" stop-color="#007CC6"/>
</linearGradient>
<linearGradient id="paint18_linear_8_25" x1="8.18481" y1="3.45199" x2="8.18481" y2="17.588" gradientUnits="userSpaceOnUse">
<stop stop-color="white"/>
<stop offset="0.396" stop-color="#003288"/>
<stop offset="1" stop-color="#007CC6"/>
</linearGradient>
<linearGradient id="paint19_linear_8_25" x1="15.1778" y1="3.452" x2="15.1778" y2="17.593" gradientUnits="userSpaceOnUse">
<stop stop-color="white"/>
<stop offset="0.396" stop-color="#003288"/>
<stop offset="1" stop-color="#007CC6"/>
</linearGradient>
<radialGradient id="paint20_radial_8_25" cx="0" cy="0" r="1" gradientUnits="userSpaceOnUse" gradientTransform="translate(10.5358 24.305) scale(7.468 1.01)">
<stop/>
<stop offset="0.394" stop-opacity="0.702"/>
<stop offset="1" stop-opacity="0"/>
</radialGradient>
</defs>
</svg>
